<?xml version="1.0" encoding="utf-8"?>
<svg xmlns="http://www.w3.org/2000/svg" width="194.1481" height="32" viewBox="0 0 194.1481 32"><title>Flourish_Insights_White@32px</title><polygon points="0.299 26.854 4.271 26.854 4.271 16.611 11.557 16.611 11.557 13.535 4.271 13.535 4.271 7.174 13.529 7.174 13.529 4.009 0.299 4.009 0.299 26.854" fill="#fff"/><rect x="15.1406" y="4.0086" width="3.6136" height="22.8457" fill="#fff"/><path d="M28.4892,10.907a7.7222,7.7222,0,0,0-8.0345,7.3967q-.0138.3332.0012.6664v.2393a7.6517,7.6517,0,0,0,7.3458,7.9458q.3288.0129.6577-.0024A7.6817,7.6817,0,0,0,36.4926,19.84q.0168-.36,0-.72v-.239a7.6755,7.6755,0,0,0-7.364-7.9748Q28.8091,10.893,28.4892,10.907Zm4.3,8.2423c0,3.1959-1.6124,5.1963-4.3,5.1963-2.7473,0-4.33-2-4.33-5.1963v-.2388c0-3.225,1.6423-5.1662,4.33-5.1662s4.3,1.9711,4.3,5.1961Z" fill="#fff"/><path d="M48.2883,20.523a3.485,3.485,0,0,1-3.6432,3.7332c-2.09,0-3.0758-1.0754-3.0758-3.4347V11.2353h-3.614V21.24c0,4.1512,2.3,5.9132,5.3755,5.9132a5.2608,5.2608,0,0,0,4.9573-2.7479V26.854h3.6134V11.2353H48.2883Z" fill="#fff"/><path d="M58.1426,14.1622V11.2354H54.529V26.854h3.6136V18.7317c0-3.3148,1.9112-4.3307,5.0769-4.36V10.9969A5.205,5.205,0,0,0,58.1426,14.1622Z" fill="#fff"/><path d="M66.5934,4.5164a2.0921,2.0921,0,1,0,.058-.0008Z" fill="#fff"/><rect x="64.8312" y="11.2356" width="3.6136" height="15.6187" fill="#fff"/><path d="M76.9255,17.3873c-2.4786-.4181-3.225-.8659-3.225-2.0005,0-1.1054.9258-1.8519,2.4786-1.8519a2.4093,2.4093,0,0,1,2.7639,1.9927c.0053.0327.01.0654.0138.0983h3.3449c-.3881-3.5245-2.9266-4.7189-6.1218-4.7189-2.9265,0-5.8531,1.5528-5.8531,4.6888,0,2.9268,1.5232,4.0919,5.6442,4.7483,2.3.388,3.3448.8661,3.3448,2.15,0,1.314-.8661,2.0005-2.8076,2.0005-2.12,0-2.9263-.9253-3.1053-2.5085H69.9974c.15,3.3153,2.5085,5.1668,6.54,5.1668,4.0017,0,6.2415-1.822,6.2415-4.987C82.779,18.8509,80.5987,17.9551,76.9255,17.3873Z" fill="#fff"/><path d="M92.9615,10.907a5.3791,5.3791,0,0,0-5.0466,2.8071V4.0088H84.3013V26.854h3.6136V17.6565a3.4629,3.4629,0,0,1,3.6732-3.7331c2.15,0,3.1058,1.0748,3.1058,3.4341V26.854H98.307V17.03C98.307,12.729,96.0975,10.907,92.9615,10.907Z" fill="#fff"/><path d="M107.3759,5.9136h1.6185V26.5757h-1.6185Z" fill="#fff"/><path d="M112.635,11.462h1.5317V14.41a5.7039,5.7039,0,0,1,5.3462-3.1789c3.2076,0,5.375,1.734,5.375,6.04v9.3054h-1.5317V17.1841c0-3.208-1.5024-4.6238-4.19-4.6238a4.7656,4.7656,0,0,0-4.9951,4.5244q-.0081.165-.0049.33v9.1607h-1.5317Z" fill="#fff"/><path d="M126.6774,22.0678h1.4737c.26,2.0518,1.5313,3.4679,4.3348,3.4679,2.5427,0,3.8437-1.1559,3.8437-2.9766,0-1.9363-1.1275-2.5427-3.9589-3.0633-3.6994-.6645-5.2022-1.6185-5.2022-4.2192,0-2.572,2.4276-4.0457,4.97-4.0457,2.7171,0,4.8552,1.1272,5.26,4.1037H135.925c-.3758-1.9363-1.6184-2.8035-3.8149-2.8035-2.1094,0-3.5256,1.07-3.5256,2.6876,0,1.734,1.04,2.37,4.1324,2.919,3.2371.5781,5.0863,1.3581,5.0863,4.3055,0,2.5427-1.8783,4.3927-5.3174,4.3927C128.9316,26.8362,126.88,24.9576,126.6774,22.0678Z" fill="#fff"/><path d="M139.5641,7.1273a1.0833,1.0833,0,1,1,1.0979,1.0979,1.0924,1.0924,0,0,1-1.0979-1.0979Zm.347,4.3347h1.5313V26.5759h-1.5313Z" fill="#fff"/><path d="M143.8988,27.4427h1.56c.4046,1.9363,2.0231,3.2657,5.1727,3.2657,3.2372,0,5.4914-1.4737,5.4914-5.2016v-3.092a6.3639,6.3639,0,0,1-5.722,3.67c-3.8429,0-6.82-2.8318-6.82-7.2245v-.2023c0-4.3055,3.0341-7.4269,7.0222-7.4269a5.7558,5.7558,0,0,1,5.52,3.4968V11.462h1.5321V25.5644c-.0295,4.45-2.9487,6.4442-6.9934,6.4442C146.2969,32.0086,144.2738,29.87,143.8988,27.4427Zm12.2525-8.6693v-.2311c0-3.8141-2.2542-6.0112-5.4037-6.0112-3.2372,0-5.5769,2.3122-5.5769,6.0683v.2314c0,3.7566,2.3693,5.9532,5.375,5.9532C153.6085,24.7844,156.1513,22.5591,156.1513,18.7734Z" fill="#fff"/><path d="M160.86,4.2375h1.5312V14.41a5.7036,5.7036,0,0,1,5.3463-3.1789c3.208,0,5.375,1.734,5.375,6.04v9.3054h-1.5313V17.1841c0-3.208-1.5033-4.6238-4.1908-4.6238a4.7649,4.7649,0,0,0-4.9943,4.5238q-.0083.1655-.0049.3311v9.1607H160.86Z" fill="#fff"/><path d="M176.6943,22.935V12.7626H174.47V11.462h2.2246V8.0232h1.532v3.439h3.9589v1.3007h-3.9589v10.056c0,1.8209.8668,2.6588,2.2543,2.6588a5.8185,5.8185,0,0,0,1.907-.3179v1.3007a5.5949,5.5949,0,0,1-1.9942.3178C177.9952,26.7783,176.6943,25.3627,176.6943,22.935Z" fill="#fff"/><path d="M183.0224,22.0678h1.4743c.26,2.0518,1.5313,3.4679,4.3348,3.4679,2.5427,0,3.8429-1.1559,3.8429-2.9766,0-1.9363-1.1266-2.5427-3.9588-3.0633-3.6991-.6645-5.2015-1.6185-5.2015-4.2192,0-2.572,2.4276-4.0457,4.97-4.0457,2.7162,0,4.8552,1.1272,5.26,4.1037H192.27c-.375-1.9363-1.6184-2.8035-3.8141-2.8035-2.1094,0-3.5256,1.07-3.5256,2.6876,0,1.734,1.04,2.37,4.1324,2.919,3.2361.5781,5.0854,1.3581,5.0854,4.3055,0,2.5427-1.8783,4.3927-5.3166,4.3927C185.2765,26.8362,183.2247,24.9576,183.0224,22.0678Z" fill="#fff"/></svg>