<?xml version="1.0" encoding="utf-8"?>
<svg xmlns="http://www.w3.org/2000/svg" width="102.28" height="32" viewBox="0 0 102.28 32"><title>Flourish_White@32px</title><polygon points="-0.001 27.765 4.144 27.765 4.144 17.075 11.748 17.075 11.748 13.865 4.144 13.865 4.144 7.226 13.805 7.226 13.805 3.923 -0.001 3.923 -0.001 27.765" fill="#000"/><rect x="15.4875" y="3.923" width="3.7712" height="23.8421" fill="#000"/><path d="M29.4184,11.1223a8.0591,8.0591,0,0,0-8.3837,8.4148v.25a7.9853,7.9853,0,0,0,8.3527,8.29,8.0165,8.0165,0,0,0,8.3834-8.3835v-.2494A8.01,8.01,0,0,0,29.4184,11.1223Zm4.4878,8.6019c0,3.3352-1.6827,5.4229-4.4878,5.4229-2.8671,0-4.519-2.0877-4.519-5.4229V19.475c0-3.3658,1.714-5.3916,4.519-5.3916s4.4878,2.0566,4.4878,5.4226Z" fill="#000"/><path d="M50.0808,21.1578a3.637,3.637,0,0,1-3.8023,3.896c-2.1817,0-3.21-1.1223-3.21-3.5844V11.465H39.2973V21.9059c0,4.3323,2.4,6.1711,5.61,6.1711a5.49,5.49,0,0,0,5.1735-2.8677v2.5556h3.771v-16.3h-3.771Z" fill="#000"/><path d="M60.3651,14.52V11.465H56.5939v16.3h3.7712V19.2883c0-3.4594,1.9946-4.52,5.2982-4.5507V11.2161A5.4321,5.4321,0,0,0,60.3651,14.52Z" fill="#000"/><path d="M69.1844,4.453a2.1674,2.1674,0,1,0,2.2438,2.1816A2.1829,2.1829,0,0,0,69.1844,4.453Z" fill="#000"/><rect x="67.3454" y="11.4653" width="3.7712" height="16.2999" fill="#000"/><path d="M79.9672,17.8852c-2.5866-.4363-3.3657-.9036-3.3657-2.0877,0-1.1536.9662-1.9327,2.5866-1.9327,1.7456,0,2.5866.6862,2.8984,2.1822h3.4907c-.4049-3.6781-3.0542-4.9246-6.3891-4.9246-3.0542,0-6.1084,1.62-6.1084,4.8932,0,3.0545,1.59,4.27,5.89,4.9554,2.4.405,3.4908.9039,3.4908,2.244,0,1.3712-.9039,2.0877-2.93,2.0877-2.2121,0-3.0539-.9657-3.2407-2.6179H72.7368c.1558,3.46,2.6179,5.3922,6.8255,5.3922,4.1762,0,6.5136-1.9015,6.5136-5.2046C86.0759,19.4127,83.8006,18.4778,79.9672,17.8852Z" fill="#000"/><path d="M96.7025,11.1224a5.6133,5.6133,0,0,0-5.2666,2.9295V3.9233H87.6646V27.7648h3.7713V18.1662A3.6135,3.6135,0,0,1,95.2692,14.27c2.244,0,3.2413,1.1217,3.2413,3.5839v9.9106h3.7707V17.5116C102.2812,13.0238,99.9754,11.1224,96.7025,11.1224Z" fill="#000"/></svg>