<svg xmlns="http://www.w3.org/2000/svg" width="100" height="50" viewBox="0 0 100 50"><title>Buckingham</title><path d="M54.8617,14.7378l-3.9169-2.2611,3.9169-2.2617Zm-.4723-5.3409L50.4728,11.658V7.1347ZM49.528,11.658,45.6106,9.3969,49.528,7.1347Zm-4.39-1.443,3.9178,2.2617L45.138,14.7378Zm.4726,5.34,3.9174-2.26v4.5224Zm4.8622-2.26,3.9166,2.26-3.9166,2.2622Z" fill="#fff"/><path d="M60.1952,17.8172,56.278,15.5557l3.9172-2.26ZM39.8048,7.1347l3.9177,2.2622L39.8048,11.658Zm4.3894,1.444L40.2768,6.3166l3.9174-2.2609Zm11.6121,7.7945,3.9168,2.2611-3.9168,2.2614Zm.4717-6.9763,3.9172-2.2622V11.658Zm-.4717-.8182V4.0557l3.9168,2.2611Zm-1.4169-5.34L50.4728,5.5V.9757ZM49.528.9757V5.5L45.6106,3.2382Zm-5.8055,14.58-3.9177,2.2615V13.2948Zm.4717.8179v4.5221l-3.9174-2.2614Zm1.4164,5.3421,3.9174-2.2621v4.5221Zm4.8622,2.26V19.4536l3.9166,2.2621Z" fill="#fff"/><path d="M45.138,16.3732l3.9178,2.2611L45.138,20.8957Zm9.7237-7.7945L50.9448,6.3166l3.9169-2.2609Zm.9446,6.1591V10.215l3.9168,2.2617ZM49.0558,6.3166,45.138,8.5787V4.0557ZM44.1942,10.215v4.5228l-3.9174-2.2611Zm6.7506,8.4193,3.9169-2.2611v4.5225Z" fill="#fff"/><path d="M11.9584,32.299H14.82a2.1993,2.1993,0,0,1,2.5148,2.2691,2.2942,2.2942,0,0,1-.9105,1.7056,2.3578,2.3578,0,0,1,1.3728,2.1539c0,1.4018-.8527,2.5438-2.8329,2.5438h-3.006ZM14.82,35.8834a1.2355,1.2355,0,0,0,1.4164-1.3153c0-.6648-.3324-1.3008-1.4164-1.3008H13.1146v2.6161Zm.1444,4.1192a1.5913,1.5913,0,1,0,0-3.1505h-1.85v3.1505Z" fill="#fff"/><path d="M18.39,36.9676V32.299h1.1851v4.6829c0,2.24,1.0118,3.2232,2.6017,3.2232s2.6016-.9829,2.6016-3.2232V32.299H25.906v4.6686c0,2.9342-1.5177,4.2494-3.7579,4.2494S18.39,39.9016,18.39,36.9676Z" fill="#fff"/><path d="M26.8745,36.635a4.4087,4.4087,0,0,1,4.2871-4.527q.1619-.0043.3236.0031a5.2919,5.2919,0,0,1,3.0063.91v1.2a4.3279,4.3279,0,0,0-3.0064-1.1418,3.3018,3.3018,0,0,0-3.411,3.5555,3.31,3.31,0,0,0,3.411,3.5555,4.3278,4.3278,0,0,0,3.0064-1.1417v1.2a5.29,5.29,0,0,1-3.0064.9107,4.4088,4.4088,0,0,1-4.6076-4.2006Q26.87,36.7968,26.8745,36.635Z" fill="#fff"/><path d="M35.5321,32.299h1.1563v4.1048l4.0181-4.1048h1.33l-4.1192,4.1337,4.6974,4.5384H41.0823l-4.3939-4.2635v4.2638H35.5321Z" fill="#fff"/><path d="M43.1924,32.299h1.1564v8.6721H43.1924Z" fill="#fff"/><path d="M46.0253,32.299H46.69L51.85,38.76V32.299h1.0551v8.6721h-.6647l-5.16-6.4608v6.4608H46.0253Z" fill="#fff"/><path d="M53.8737,36.635a4.4087,4.4087,0,0,1,4.2871-4.527q.1619-.0043.3236.0031a5.2917,5.2917,0,0,1,3.0064.91v1.2a4.3279,4.3279,0,0,0-3.0064-1.1418,3.3018,3.3018,0,0,0-3.4109,3.5555,3.3575,3.3575,0,0,0,3.0915,3.6041q.1593.0123.3194.0092a4.507,4.507,0,0,0,2.2114-.5058V37.7768H58.9179v-.9683h2.9342v3.4977a7.9763,7.9763,0,0,1-3.3678.9106,4.4562,4.4562,0,0,1-4.61-4.2971Q53.87,36.7774,53.8737,36.635Z" fill="#fff"/><path d="M62.9506,32.299h1.1567v3.6134h4.7839V32.299h1.1561v8.6721H68.8909v-4.09H64.1073v4.09H62.9506Z" fill="#fff"/><path d="M74.3259,32.299h.7514l3.7288,8.6721H77.6212L76.58,38.5429H72.7649l-1.0406,2.4282h-1.127ZM76.19,37.6034l-1.5177-3.57-1.5176,3.57Z" fill="#fff"/><path d="M79.3558,32.299h1.1273l3.3533,7.1978L87.19,32.299H88.259v8.6721H87.1461V35.06c0-.2168.029-.7083.029-.7227-.029.0434-.217.52-.3035.7227l-2.7028,5.9115h-.7806L80.6854,35.06c-.1011-.2023-.289-.6793-.3034-.7227,0,.0144.0289.5059.0289.7227v5.9115H79.3558Z" fill="#fff"/><path d="M11.7329,48.265l.1769-.7279a2.4062,2.4062,0,0,0,1.79.8065,1.0982,1.0982,0,0,0,1.2313-.9465q.0057-.0429.0079-.0863c0-.6-.295-.9343-1.3966-1.2294C12.431,45.7863,11.9,45.1864,11.9,44.36c0-.8362.6885-1.5345,1.8983-1.5345a2.6537,2.6537,0,0,1,1.6032.5411l-.177.62a2.6324,2.6324,0,0,0-1.4262-.5214c-.7376,0-1.1606.3444-1.1606.8952,0,.4228.2656.777,1.19,1.0229,1.2688.3343,1.8492.8852,1.8492,1.8588a1.7961,1.7961,0,0,1-1.8415,1.75q-.068-.0016-.1355-.0086A2.7627,2.7627,0,0,1,11.7329,48.265Z" fill="#fff"/><path d="M18.0765,43.6127h-2.095v-.6591h4.9769v.6591H18.8633v5.2424h-.7868Z" fill="#fff"/><path d="M21.7545,42.9536H23.702A1.6815,1.6815,0,0,1,25.63,44.6848a1.58,1.58,0,0,1-1.22,1.6425l1.79,2.5278H25.285l-1.6917-2.4393H22.5414v2.4393h-.7869Zm1.9475,2.8033a1.0748,1.0748,0,1,0,0-2.1442H22.5414v2.1442Z" fill="#fff"/><path d="M28.8554,42.9536h.5119l2.5377,5.9015h-.8066L30.39,47.2027H27.7931l-.7082,1.6524h-.7676Zm1.2688,3.61-1.0328-2.43-1.0328,2.43Z" fill="#fff"/><path d="M33.0351,43.6127H30.94v-.6591h4.9772v.6591h-2.095v5.2424h-.7869Z" fill="#fff"/><path d="M36.7132,42.9536h3.57v.6591H37.5v1.8h2.2919v.6591H37.5v2.1246h2.7835v.6589h-3.57Z" fill="#fff"/><path d="M40.7551,45.9043a3,3,0,0,1,2.917-3.0807q.11-.003.2207.0021a3.6,3.6,0,0,1,2.0457.62v.8164a2.9445,2.9445,0,0,0-2.0457-.777,2.2469,2.2469,0,0,0-2.3213,2.4195,2.2848,2.2848,0,0,0,2.1038,2.4527q.1084.0082.2175.0062a3.067,3.067,0,0,0,1.5048-.3441V46.6813h-1.21v-.6589h1.9965v2.38a5.428,5.428,0,0,1-2.2916.62,3.0328,3.0328,0,0,1-3.1369-2.9249Q40.7523,46.0009,40.7551,45.9043Z" fill="#fff"/><path d="M47.1282,42.9536h.7868v5.9015h-.7868Z" fill="#fff"/><path d="M48.7706,45.9043a3,3,0,0,1,2.917-3.0807q.11-.003.2206.0021a3.6009,3.6009,0,0,1,2.0458.62v.8164a2.9448,2.9448,0,0,0-2.0458-.777A2.2471,2.2471,0,0,0,49.582,45.65a2.2194,2.2194,0,0,0,.0053.254,2.2525,2.2525,0,0,0,2.3212,2.42,2.9448,2.9448,0,0,0,2.0458-.7771v.8163a3.5994,3.5994,0,0,1-2.0458.62,3,3,0,0,1-3.1359-2.8577Q48.7675,46.0151,48.7706,45.9043Z" fill="#fff"/><path d="M56.3825,42.9536h.8062l1.4165,4.3572c.0294.0984.0688.3345.0786.3639a2.6319,2.6319,0,0,1,.0985-.3639l1.3966-4.3572h.4918l1.3965,4.3572c.0394.1082.0982.3639.0982.3639a2.8245,2.8245,0,0,1,.0788-.3639l1.4163-4.3572h.7671l-2.0359,5.9015H61.9l-1.3963-4.0425c-.03-.0786-.0885-.2951-.0986-.3245-.01.02-.0688.2459-.0981.3245L58.91,48.8551h-.4918Z" fill="#fff"/><path d="M64.998,42.9536h3.57v.6591H65.7848v1.8h2.2918v.6591H65.7848v2.1246h2.7834v.6589h-3.57Z" fill="#fff"/><path d="M71.489,42.9536H72l2.5376,5.9015h-.8067l-.708-1.6524H70.4267l-.7081,1.6524h-.7672Zm1.2688,3.61-1.0327-2.43-1.0329,2.43Z" fill="#fff"/><path d="M75.108,42.9536h.7867v5.2426h2.7835v.6589h-3.57Z" fill="#fff"/><path d="M79.76,43.6127H77.665v-.6591h4.9768v.6591H80.5473v5.2424H79.76Z" fill="#fff"/><path d="M83.438,42.9536h.7868v2.4589H87.48V42.9536h.7867v5.9015H87.48V46.0716H84.2248v2.7835H83.438Z" fill="#fff"/></svg>