<svg xmlns="http://www.w3.org/2000/svg" width="100" height="50" viewBox="0 0 100 50"><title>ColonyGroup</title><path d="M54.8617,14.7378l-3.9169-2.2611,3.9169-2.2617Zm-.4723-5.3409L50.4728,11.658V7.1347ZM49.528,11.658,45.6106,9.3969,49.528,7.1347Zm-4.39-1.443,3.9178,2.2617L45.138,14.7378Zm.4726,5.34,3.9174-2.26v4.5224Zm4.8622-2.26,3.9166,2.26-3.9166,2.2622Z" fill="#fff"/><path d="M60.1952,17.8172,56.278,15.5557l3.9172-2.26ZM39.8048,7.1347l3.9177,2.2622L39.8048,11.658Zm4.3894,1.444L40.2768,6.3166l3.9174-2.2609Zm11.6121,7.7945,3.9168,2.2611-3.9168,2.2614Zm.4717-6.9763,3.9172-2.2622V11.658Zm-.4717-.8182V4.0557l3.9168,2.2611Zm-1.4169-5.34L50.4728,5.5V.9757ZM49.528.9757V5.5L45.6106,3.2382Zm-5.8055,14.58-3.9177,2.2615V13.2948Zm.4717.8179v4.5221l-3.9174-2.2614Zm1.4164,5.3421,3.9174-2.2621v4.5221Zm4.8622,2.26V19.4536l3.9166,2.2621Z" fill="#fff"/><path d="M45.138,16.3732l3.9178,2.2611L45.138,20.8957Zm9.7237-7.7945L50.9448,6.3166l3.9169-2.2609Zm.9446,6.1591V10.215l3.9168,2.2617ZM49.0558,6.3166,45.138,8.5787V4.0557ZM44.1942,10.215v4.5228l-3.9174-2.2611Zm6.7506,8.4193,3.9169-2.2611v4.5225Z" fill="#fff"/><path d="M14.1948,43.049v-.38c.6568-.088.72-.1765.72-.909V39.587c0-.9976-.417-1.3894-1.0357-1.3894a1.45,1.45,0,0,0-1.0614.48V41.76c0,.7325.0626.821.682.909v.38H10.5946v-.38c.77-.088.8338-.1384.8338-.9595V35.4564a20.0265,20.0265,0,0,0-2.4636-.1009h-.632v6.0638c0,1.0609.1265,1.15,1.1751,1.2256v.4041H5.7306v-.4041c1.0105-.0761,1.1371-.1644,1.1371-1.2256V35.3552h-.594c-1.1115,0-1.3517.1266-1.5407.404a3.0319,3.0319,0,0,0-.4551,1.1374h-.43c.0634-.8467.1267-1.7186.1519-2.3755h.2651c.1894.278.3541.3155.7073.3155h5.23c.9981,0,1.2256-.0751,1.2256-.2779v-.1764a9.6789,9.6789,0,0,0,1.3894-.3284v4.1309a2.58,2.58,0,0,1,1.7182-.8463c1.0862-.0124,1.769.6816,1.769,2.1095V41.71c0,.8211.0757.8715.7706.96v.3794Z" fill="#fff"/><path d="M22.2167,41.8739A2.8585,2.8585,0,0,1,20.0187,43.2a2.52,2.52,0,0,1-2.5582-2.4811c-.0011-.0743.0011-.1487.0065-.2228a3.1537,3.1537,0,0,1,.8967-2.2485,2.7231,2.7231,0,0,1,1.8953-.91h.0124a2.0308,2.0308,0,0,1,1.996,1.9834c0,.2527-.0757.3914-.3408.4422-.2147.0252-1.769.1518-3.1081.2028.0386,1.49.8719,2.1851,1.769,2.1851a2.05,2.05,0,0,0,1.4145-.5811Zm-2.2229-4.0428c-.5179,0-.9982.5687-1.1115,1.5664.5811,0,1.1371-.0124,1.7306-.0381.2027,0,.2784-.05.2784-.2523,0-.644-.3287-1.2759-.8845-1.2759Z" fill="#fff"/><path d="M33.0565,40.9135a14.0273,14.0273,0,0,1-.7073,1.996,12.1839,12.1839,0,0,1-2.3375.3283c-3.2847,0-4.6744-2.1856-4.6744-4.1942,0-2.615,2.009-4.396,4.9523-4.396a9.6222,9.6222,0,0,1,2.2742.34c.1133.6954.2019,1.2637.278,2.01l-.4293.088a2.27,2.27,0,0,0-2.4008-1.92c-1.9329,0-2.9815,1.7434-2.9815,3.6254,0,2.3375,1.3013,3.9039,3.0952,3.9039,1.1371,0,1.8825-.6826,2.5141-1.9458Z" fill="#fff"/><path d="M36.6193,37.3386A2.7743,2.7743,0,0,1,39.4362,40.07q.0009.0493,0,.0987a2.8417,2.8417,0,0,1-2.6451,3.0257q-.1112.0075-.2226.0062a2.7619,2.7619,0,0,1-2.8906-2.627q-.0042-.0887-.0028-.1774A2.9472,2.9472,0,0,1,36.51,37.34c.0322-.0012.0645-.0019.0967-.0021Zm-.19.4674c-.6064,0-1.1748.72-1.1748,2.1475,0,1.5665.5684,2.78,1.4527,2.78.594,0,1.15-.4045,1.15-2.2237,0-1.6425-.5051-2.7035-1.4151-2.7035Z" fill="#fff"/><path d="M39.6759,43.049v-.38c.7711-.1009.8592-.1643.8592-.9847v-5.862c0-.7963-.0633-.8211-.8082-.91v-.3411a14.0768,14.0768,0,0,0,2.198-.4421v7.555c0,.8463.0885.9091.872.9848v.3794Z" fill="#fff"/><path d="M46.0688,37.3386A2.7743,2.7743,0,0,1,48.8855,40.07c.0005.0328.0005.0657,0,.0985A2.8417,2.8417,0,0,1,46.24,43.1942q-.1112.0075-.2226.0062a2.7618,2.7618,0,0,1-2.89-2.6272q-.0042-.0885-.0027-.1772A2.9468,2.9468,0,0,1,45.9586,37.34q.0483-.0018.0966-.0021Zm-.19.4674c-.6064,0-1.1752.72-1.1752,2.1475,0,1.5665.5688,2.78,1.4531,2.78.5936,0,1.15-.4045,1.15-2.2237,0-1.6425-.505-2.7035-1.4146-2.7035Z" fill="#fff"/><path d="M52.9029,43.049v-.38c.6064-.0757.6821-.1384.6821-1.0228V39.511c0-.8967-.3788-1.2759-.9728-1.2759a1.8255,1.8255,0,0,0-1.0991.48v3.02c0,.8082.0757.8586.67.9343v.38H49.2519v-.38c.8086-.1009.8714-.1261.8714-.9724V39.082c0-.7706-.0626-.821-.7073-.9477v-.3287a12.971,12.971,0,0,0,2.0971-.4927v.96c.2533-.1766.5189-.3793.8087-.5688a1.7457,1.7457,0,0,1,1.0109-.366c1.0106,0,1.6421.733,1.6421,1.9834v2.4132c0,.8081.0757.8462.7577.9342v.38Z" fill="#fff"/><path d="M61.57,37.8566c-.6326.1-.7459.2275-1.0743.9224-.3155.6568-.72,1.7178-1.5164,3.6006a32.9864,32.9864,0,0,0-1.3137,3.5.4027.4027,0,0,1-.4417.3279.8642.8642,0,0,1-.8219-.7329c0-.2019.0891-.3156.3288-.48a2.2778,2.2778,0,0,0,.9977-.9857,3.2817,3.2817,0,0,0,.3036-.6435.8853.8853,0,0,0-.0381-.5944c-.6063-1.6926-1.25-3.3856-1.5412-4.0671-.24-.5949-.3793-.7464-1.0109-.8468v-.3665H58.36v.3665c-.5564.1-.6444.2018-.4936.6316l1.0238,2.931c.3156-.7706.7835-2.11,1.0234-2.8553.1389-.4422.038-.5936-.6192-.7073v-.3665h2.2746Z" fill="#fff"/><path d="M72.4593,39.5744c-.6821.1138-.7454.177-.7454.9853v1.0237a5.7436,5.7436,0,0,0,.0886,1.2005,13.2623,13.2623,0,0,1-2.8678.4539c-2.88,0-4.75-1.68-4.75-4.2066,0-2.9057,2.337-4.3833,4.94-4.3833a9.9783,9.9783,0,0,1,2.45.366c.0381.43.1014,1.1119.2028,2.0344l-.43.0885a2.2778,2.2778,0,0,0-2.45-1.996c-1.6672,0-3.0195,1.3894-3.0195,3.6892,0,1.882.9852,3.9158,3.1965,3.9158a1.7132,1.7132,0,0,0,.8463-.177c.2151-.1262.3288-.3156.3288-.745v-1.15c0-.8967-.0752-.9852-1.3642-1.099V39.17h3.575Z" fill="#fff"/><path d="M75.0493,38.6776c.43-.7329.9475-1.3385,1.4654-1.3385a.7684.7684,0,0,1,.8083.7263l0,.0063a.8955.8955,0,0,1-.543.821.3287.3287,0,0,1-.367-.05.9086.9086,0,0,0-.5678-.2523c-.2785,0-.5812.24-.8219.8082v2.3375c0,.7953.0627.8586,1.0358.9343v.379H72.8V42.67c.72-.0757.8339-.139.8339-.9343v-2.704c0-.72-.0761-.7706-.7206-.8968v-.3283a10.8349,10.8349,0,0,0,2.11-.48v1.3517Z" fill="#fff"/><path d="M80.3551,37.3386a2.7745,2.7745,0,0,1,2.8175,2.7308c.0005.033,0,.0661,0,.0991a2.8418,2.8418,0,0,1-2.6454,3.0257q-.1107.0075-.2218.0062a2.7616,2.7616,0,0,1-2.89-2.6267q-.0042-.0888-.0027-.1777A2.9466,2.9466,0,0,1,80.2456,37.34q.0486-.0018.0972-.0021Zm-.1894.4674c-.6064,0-1.1747.72-1.1747,2.1475,0,1.5665.5683,2.78,1.4526,2.78.5941,0,1.15-.4045,1.15-2.2237,0-1.6425-.5055-2.7035-1.415-2.7035Z" fill="#fff"/><path d="M89.9568,42.7455a9.3421,9.3421,0,0,0-1.0738.2023c-.3789.0757-.7453.1644-1.0738.2528l-.101-.0885v-.8087a6.483,6.483,0,0,1-.7453.5435,1.9409,1.9409,0,0,1-1.0618.3537c-.9724,0-1.6165-.6192-1.6165-1.8316V38.8041c0-.6065-.0889-.6825-.4049-.7582l-.3152-.0757v-.3534c.29-.0124.6564-.05,1.0481-.0762.3922-.0376.8087-.0881,1.099-.139-.0381.48-.0381,1.1123-.0381,1.87v1.7939c0,.9348.4679,1.2251.96,1.2251a1.5219,1.5219,0,0,0,1.0743-.4417V38.8169c0-.6193-.0885-.6953-.4555-.771l-.416-.0757v-.3534c.3656-.0124.8077-.05,1.2252-.0762.4036-.0376.7827-.0881,1.0356-.139v4.1443c0,.6563.0881.77.5558.8081l.3032.0253Z" fill="#fff"/><path d="M93.2158,37.566a1.283,1.283,0,0,1,.67-.2275,2.2867,2.2867,0,0,1,2.2663,2.307c0,.04-.0018.0791-.0042.1185A3.6209,3.6209,0,0,1,93.052,43.2a2.4922,2.4922,0,0,1-.821-.1771v1.63c0,.8082.0761.8838,1.0488.9728v.3789H89.9576v-.3789c.8082-.0756.8838-.1643.8838-.9219V39.0186c0-.7453-.088-.7958-.77-.8844V37.78a15.6815,15.6815,0,0,0,2.16-.5678v.9472Zm-.9852,4.51a1.7952,1.7952,0,0,0,1.0866.4926c.8211,0,1.3894-.8715,1.3894-2.2229,0-1.4907-.7827-2.1223-1.516-2.1223a1.687,1.687,0,0,0-.96.3789Z" fill="#fff"/></svg>