<svg xmlns="http://www.w3.org/2000/svg" width="100" height="50" viewBox="0 0 100 50"><title>RonaldBlueTrust</title><path d="M30.675,10.0019l2.5917,3.8211.3.45q1.2019,1.7607,2.2161,1.8263l.3.0191c.1127.0063.1657.0508.16.1339q-.0093.1434-.4178.2581a3.4249,3.4249,0,0,1-.925.1147,2.6009,2.6009,0,0,1-1.5165-.465,5.527,5.527,0,0,1-1.3663-1.5163L29.68,11.0752l-.1315-.2066a.7832.7832,0,0,0-.7324-.385H27.5668l-.2066.0375q-.1126.0663-.1127.3016v2.94l.0094.3766a5.023,5.023,0,0,0,.08,1.107,1.0144,1.0144,0,0,0,.38.5325,2.3993,2.3993,0,0,0,1.2489.4052q.3381.0364.3475.2107.0187.1837-.31.1837-.1317,0-.554-.0418-.3854-.0417-1.1926-.0417l-.9015-.01-.4883.0094a7.5162,7.5162,0,0,0-.77.0469c-.2441.0247-.4131.0376-.507.0376-.1565,0-.2348-.0644-.2348-.1924,0-.0918.0783-.1526.2348-.1832a1.2247,1.2247,0,0,0,.9859-.6821,6.2722,6.2722,0,0,0,.2348-2.13V6.6377l-.0188-.9783q0-1.467-1.0235-1.6363l-.4414-.0658q-.3008-.0552-.3-.22,0-.1925.3192-.1927.0752,0,.6573.0376.3381.0282.8358.0282.4317,0,1.4743-.0658.7512-.0469,1.324-.0469a5.443,5.443,0,0,1,3.2584.8131,2.8183,2.8183,0,0,1,1.0987,2.42A3.5792,3.5792,0,0,1,30.675,10.0019Zm-2.7594-.2038H28.979A2.68,2.68,0,0,0,30.9176,9.12a2.4528,2.4528,0,0,0,.7058-1.8558,2.9147,2.9147,0,0,0-.96-2.247,3.4775,3.4775,0,0,0-2.4467-.881,1.1953,1.1953,0,0,0-.7669.1837.85.85,0,0,0-.2118.6642l.0094.311V9.12a.8678.8678,0,0,0,.1176.5607A.8438.8438,0,0,0,27.9156,9.7981Z" fill="#fff"/><path d="M34.9006,16.6692a2.6557,2.6557,0,0,1-1.5419-.4729,5.598,5.598,0,0,1-1.378-1.5283l-2.47-3.7756a.7367.7367,0,0,0-.695-.3644H27.5668l-.19.0354c-.0562.0376-.0846.1248-.0846.2593v2.94l.0093.3756a5.0183,5.0183,0,0,0,.0783,1.0965.9764.9764,0,0,0,.3648.509,2.37,2.37,0,0,0,1.226.396c.2495.0269.38.1119.3874.2525a.1751.1751,0,0,1-.0428.14.4106.4106,0,0,1-.3115.09c-.0894,0-.2773-.014-.5585-.0419-.2547-.0276-.6543-.0415-1.1881-.0415l-.9019-.01-.4871.0093a7.4942,7.4942,0,0,0-.7661.0467c-.2508.0255-.4182.0378-.5117.0378-.2429,0-.2792-.1483-.2792-.2367,0-.1153.091-.1916.2706-.2269a1.1879,1.1879,0,0,0,.9537-.6561,6.27,6.27,0,0,0,.2312-2.1121V6.6378L25.7476,5.66c0-.9625-.3227-1.4834-.9865-1.5935l-.44-.0655c-.2251-.0413-.3384-.13-.3384-.2645,0-.1081.0631-.237.3636-.237.0517,0,.2739.0127.66.0376.2242.0186.5041.0281.8328.0281.2863,0,.7814-.0221,1.4714-.0656.4982-.0313.9446-.0471,1.3269-.0471a5.5092,5.5092,0,0,1,3.2848.8219,2.8718,2.8718,0,0,1,1.1167,2.4559A3.6166,3.6166,0,0,1,30.74,10.0189l2.8639,4.2292c.7891,1.156,1.5233,1.7638,2.1821,1.8066l.3.0191a.2269.2269,0,0,1,.1658.0637.1541.1541,0,0,1,.0353.1177c-.0078.1188-.1509.2136-.45.2976A3.4832,3.4832,0,0,1,34.9006,16.6692Zm-6.0849-6.23a.8281.8281,0,0,1,.7708.4069l.13.2053,2.338,3.5678a5.5121,5.5121,0,0,0,1.3544,1.5041,2.5683,2.5683,0,0,0,1.4912.4571,3.3918,3.3918,0,0,0,.9129-.1131c.3291-.0925.3828-.1764.3856-.2182a.0683.0683,0,0,0-.0135-.0529.1524.1524,0,0,0-.1042-.0337l-.3009-.0192c-.6875-.0445-1.4445-.6654-2.25-1.8456l-.3007-.45L30.61,9.9848l.0454-.0227A3.5518,3.5518,0,0,0,32.95,6.7306a2.788,2.788,0,0,0-1.0806-2.3845,5.4268,5.4268,0,0,0-3.2321-.8045c-.3805,0-.825.0158-1.3213.0469-.6919.0437-1.1888.0658-1.477.0658-.3311,0-.6135-.01-.8395-.0283-.478-.0309-.6193-.0374-.6536-.0374-.2748,0-.2748.1116-.2748.1482,0,.0851.0889.1446.2641.1768l.44.0655c.7045.1168,1.0614.6821,1.0614,1.68l.0189.9776V13.39a6.3347,6.3347,0,0,1-.2385,2.1475,1.2705,1.2705,0,0,1-1.0185.708c-.1986.0389-.1986.1148-.1986.14,0,.0689.0216.1479.19.1479.09,0,.255-.0122.5026-.0373a7.554,7.554,0,0,1,.7744-.0472l.4876-.0093.9026.01c.5365,0,.9394.0141,1.1969.042.2778.0276.4628.0415.5493.0415.1577,0,.2206-.033.2455-.0607a.0888.0888,0,0,0,.02-.0739c-.0051-.0928-.1087-.15-.308-.1711a2.45,2.45,0,0,1-1.2718-.4147,1.061,1.061,0,0,1-.3956-.5556,5.0033,5.0033,0,0,1-.0814-1.1186l-.0093-.3756v-2.94a.3656.3656,0,0,1,.1345-.34l.0147-.0054.2066-.0376Zm.1633-.5967H27.9156a.8658.8658,0,0,1-.582-.1309.8885.8885,0,0,1-.1305-.592V5.2945l-.0094-.3094a.895.895,0,0,1,.2272-.6994,1.2224,1.2224,0,0,1,.7959-.1943,3.5356,3.5356,0,0,1,2.4767.8925,2.97,2.97,0,0,1,.9743,2.28,2.506,2.506,0,0,1-.7195,1.8879A2.735,2.735,0,0,1,28.979,9.8425ZM28.2168,4.18a1.1638,1.1638,0,0,0-.7377.1727.8146.8146,0,0,0-.1966.6308l.01.3094V9.12c0,.3512.0568.4816.1045.5292s.1763.1049.5191.1049H28.979a2.6492,2.6492,0,0,0,1.9077-.6661,2.4209,2.4209,0,0,0,.6923-1.8238A2.8838,2.8838,0,0,0,30.6335,5.05,3.45,3.45,0,0,0,28.2168,4.18Z" fill="#fff"/><path d="M40.1971,8.5586a4,4,0,0,1,2.9016,1.1863A3.8228,3.8228,0,0,1,44.31,12.5727a3.941,3.941,0,0,1-1.1925,2.9455,4.1416,4.1416,0,0,1-3.0143,1.163,4.0116,4.0116,0,0,1-2.9345-1.13,3.8816,3.8816,0,0,1-1.15-2.8936,3.9127,3.9127,0,0,1,1.2207-2.903A4.0708,4.0708,0,0,1,40.1971,8.5586Zm-.2391.3756a2.33,2.33,0,0,0-1.889.8684,3.4611,3.4611,0,0,0-.7172,2.2773,4.8934,4.8934,0,0,0,.8954,3,2.6831,2.6831,0,0,0,2.2264,1.2069,2.2033,2.2033,0,0,0,1.8326-.8545,3.6609,3.6609,0,0,0,.67-2.3194,5.0144,5.0144,0,0,0-.8437-3.0143A2.5775,2.5775,0,0,0,39.958,8.9342Z" fill="#fff"/><path d="M40.1032,16.7256a4.0715,4.0715,0,0,1-2.9656-1.143,3.9411,3.9411,0,0,1-1.1636-2.9254,3.9731,3.9731,0,0,1,1.2339-2.9347,4.1324,4.1324,0,0,1,2.9892-1.2084A4.06,4.06,0,0,1,43.13,9.7131a3.8819,3.8819,0,0,1,1.2247,2.86,4.001,4.001,0,0,1-1.206,2.9774A4.2024,4.2024,0,0,1,40.1032,16.7256Zm.0939-8.1226A4.046,4.046,0,0,0,37.27,9.786a3.8877,3.8877,0,0,0-1.2073,2.8712A3.8542,3.8542,0,0,0,37.2,15.5191a3.9854,3.9854,0,0,0,2.9033,1.1177,4.1167,4.1167,0,0,0,2.9832-1.15,3.9153,3.9153,0,0,0,1.1792-2.9137,3.796,3.796,0,0,0-1.1979-2.7961A3.9754,3.9754,0,0,0,40.1971,8.603Zm.2765,7.7281a2.7364,2.7364,0,0,1-2.2621-1.2246,4.9586,4.9586,0,0,1-.9041-3.0266,3.5186,3.5186,0,0,1,.7273-2.3055A2.3823,2.3823,0,0,1,39.958,8.89a2.63,2.63,0,0,1,2.2108,1.1829,5.0783,5.0783,0,0,1,.8522,3.04,3.72,3.72,0,0,1-.68,2.3469A2.2545,2.2545,0,0,1,40.4736,16.3311ZM39.958,8.9786a2.2969,2.2969,0,0,0-1.8547.8523,3.4325,3.4325,0,0,0-.707,2.249,4.8718,4.8718,0,0,0,.8866,2.9736,2.6519,2.6519,0,0,0,2.1907,1.1888,2.17,2.17,0,0,0,1.7976-.8374,3.6349,3.6349,0,0,0,.661-2.2921,4.9949,4.9949,0,0,0-.8352-2.9882A2.5461,2.5461,0,0,0,39.958,8.9786Z" fill="#fff"/><path d="M47.0363,10.0516a3.4988,3.4988,0,0,1,2.6105-1.493A2.7619,2.7619,0,0,1,52.0225,9.79a4.4714,4.4714,0,0,1,.601,2.5761v2.247l-.0094.2824.0282.4511a.8364.8364,0,0,0,.7888.7241l.3944.0563q.2535.0366.2629.1833.0091.2019-.309.2017a3.5043,3.5043,0,0,1-.3654-.0323,9.9423,9.9423,0,0,0-1.1425-.0428l-.9273.0282h-.3558l-.2716.0188-.1312-.0289A.1539.1539,0,0,1,50.52,16.31q0-.1445.169-.1833l.2817-.0751q.3753-.0939.3756-.675V12.1418a3.0169,3.0169,0,0,0-.6023-2.0116,2.1262,2.1262,0,0,0-1.7127-.7077,2.2363,2.2363,0,0,0-1.3881.46,1.3138,1.3138,0,0,0-.607,1.0517v3.584l.0094.2824.0094.47q.0469.79,1.3052.8656.31.0288.31.2021t-.216.1735a3.1621,3.1621,0,0,1-.4789-.0539q-.1783-.0213-.8827-.0212-1.493,0-1.7841.0428-.2911.0324-.3756.0323-.1785,0-.1691-.1544c.0061-.0772.0658-.1384.1784-.1836a1.2546,1.2546,0,0,0,.6433-.4128,1.449,1.449,0,0,0,.1643-.7874V10.7354a1.775,1.775,0,0,0-.16-.905.6722.6722,0,0,0-.601-.2389l-.4038.0094a.2908.2908,0,0,1-.15-.0386.137.137,0,0,1-.0845-.135q0-.135.2441-.1832a4.8874,4.8874,0,0,0,1.2114-.385l.4976-.2442q.2908-.1408.3663-.1784a.4747.4747,0,0,1,.2253-.0751q.169,0,.15.2723-.0094.15-.0094.3568Z" fill="#fff"/><path d="M53.7793,16.5565a3.5254,3.5254,0,0,1-.3708-.0326,9.932,9.932,0,0,0-1.137-.0425l-.9259.0282h-.3573l-.2749.0192-.15-.0355a.195.195,0,0,1-.0874-.1829.2237.2237,0,0,1,.2035-.2266l.28-.0747c.2307-.0577.3426-.2644.3426-.6321V12.1418a2.9883,2.9883,0,0,0-.5917-1.9827,2.0923,2.0923,0,0,0-1.6789-.6922,2.2022,2.2022,0,0,0-1.3612.4512,1.2773,1.2773,0,0,0-.59,1.0162v3.5839l.0094.2809L47.1,15.27c.03.5035.4432.7729,1.2635.8223.2338.0216.3516.1044.3516.2464,0,.0814-.0338.2179-.26.2179a3.174,3.174,0,0,1-.4862-.0545c-.1139-.0135-.4091-.0206-.8754-.0206-.9892,0-1.5873.0143-1.7776.0424-.2.0221-.3239.0327-.3821.0327a.2237.2237,0,0,1-.17-.0582.1841.1841,0,0,1-.0438-.1432c.0075-.0958.0769-.17.2063-.2223a1.2214,1.2214,0,0,0,.6228-.3963,1.4153,1.4153,0,0,0,.1568-.7627V10.7354a1.7487,1.7487,0,0,0-.1522-.88.6355.6355,0,0,0-.564-.2192l-.4028.0093a.3357.3357,0,0,1-.1739-.0447.1783.1783,0,0,1-.1062-.1731c0-.1137.0941-.19.28-.2269a4.8522,4.8522,0,0,0,1.2011-.3817l.4971-.2437q.29-.141.3659-.1784c.1658-.0948.3033-.1073.3794-.0258a.3458.3458,0,0,1,.06.2658c-.0062.0986-.0093.2177-.0093.3538v.9411a3.4838,3.4838,0,0,1,2.5661-1.4175,2.8153,2.8153,0,0,1,2.412,1.25,4.5341,4.5341,0,0,1,.6091,2.6017v2.2471l-.0094.2839.0281.4469a.7892.7892,0,0,0,.7511.6828l.3941.0564c.1919.0276.2932.1032.3009.2245a.2068.2068,0,0,1-.0544.16A.4012.4012,0,0,1,53.7793,16.5565Zm-1.508-.1639a10.0151,10.0151,0,0,1,1.1488.0432,3.5333,3.5333,0,0,0,.3592.0319.3305.3305,0,0,0,.2348-.0617.12.12,0,0,0,.03-.0936c-.0046-.0726-.08-.12-.2249-.1413l-.3943-.0564a.88.88,0,0,1-.8263-.7606l-.0287-.4557.0093-.2867V12.3661a4.4517,4.4517,0,0,0-.5929-2.55A2.73,2.73,0,0,0,49.6468,8.603,3.4731,3.4731,0,0,0,47.07,10.08l-.0784.0932V8.9905c0-.138.0032-.259.01-.36a.28.28,0,0,0-.0366-.1994c-.0449-.0479-.1473-.0279-.2726.0436-.0526.0261-.1749.0858-.3689.18l-.4977.244a4.9447,4.9447,0,0,1-1.223.3889c-.1374.0273-.2075.0743-.2075.14a.0925.0925,0,0,0,.0585.0944.2529.2529,0,0,0,.1318.0346l.4028-.0093a.7164.7164,0,0,1,.6389.2586,1.7914,1.7914,0,0,1,.1672.93v4.2384a1.4945,1.4945,0,0,1-.172.8124,1.3,1.3,0,0,1-.6653.43c-.0935.0375-.1443.0866-.1489.1451a.0984.0984,0,0,0,.02.0762.1428.1428,0,0,0,.1049.03c.0541,0,.1789-.0108.3707-.0321.1957-.0288.7815-.043,1.789-.043.4764,0,.7668.007.8879.0214a3.18,3.18,0,0,0,.4737.0537c.1512,0,.1716-.0653.1716-.1291,0-.0329,0-.1329-.27-.1578-.86-.0517-1.313-.357-1.3456-.9073l-.0189-.7537V10.9343a1.3614,1.3614,0,0,1,.6246-1.0871,2.2908,2.2908,0,0,1,1.415-.4691,2.1769,2.1769,0,0,1,1.7465.7233,3.0724,3.0724,0,0,1,.6129,2.04V15.377c0,.4085-.1376.65-.4092.7182l-.2811.0748c-.1207.0278-.136.09-.136.14,0,.07.0245.0936.0381.1029l.1176.026.2651-.0184h.3589l.9259-.0282Z" fill="#fff"/><path d="M59.25,12.3053V11.1475a2.1124,2.1124,0,0,0-.4038-1.4844,1.95,1.95,0,0,0-1.4649-.56q-1.2394,0-1.2395,1.0427a2.465,2.465,0,0,0,.1221.7077,1.2261,1.2261,0,0,1,.0657.2981c.0061.1116-.0558.1676-.1864.1676a1.6933,1.6933,0,0,1-.7973-.1878q-.3591-.1878-.3591-.4132a1.9247,1.9247,0,0,1,.6292-1.2531A2.9222,2.9222,0,0,1,57.86,8.5586a3.084,3.084,0,0,1,1.9814.5672,1.9369,1.9369,0,0,1,.7043,1.5991v3.6765a2.6669,2.6669,0,0,0,.2112,1.2427.75.75,0,0,0,.709.37,1.2188,1.2188,0,0,0,.2254-.0164,1.27,1.27,0,0,1,.2254-.04q.16-.0093.15.1315-.0094.1691-.4427.3425a2.2691,2.2691,0,0,1-.8478.1739,1.7226,1.7226,0,0,1-1.3941-.9578,4.2783,4.2783,0,0,1-2.5213,1.033,2.0006,2.0006,0,0,1-1.4012-.4744,1.6362,1.6362,0,0,1-.52-1.2722,1.8643,1.8643,0,0,1,.9837-1.6764A9.6686,9.6686,0,0,1,59.25,12.3053Zm0,.3756A4.8488,4.8488,0,0,0,57,13.3393a1.5719,1.5719,0,0,0-.7931,1.3494,1.3043,1.3043,0,0,0,1.4,1.4009,1.8214,1.8214,0,0,0,1.316-.5134A1.417,1.417,0,0,0,59.25,14.54Z" fill="#fff"/><path d="M56.8609,16.7256A2.0514,2.0514,0,0,1,55.43,16.24a1.685,1.685,0,0,1-.5346-1.305A1.9143,1.9143,0,0,1,55.9,13.22a9.6771,9.6771,0,0,1,3.305-.9531v-1.12a2.0833,2.0833,0,0,0-.3911-1.4532,1.9156,1.9156,0,0,0-1.4332-.5467c-.8042,0-1.1951.3265-1.1951.9983a2.4343,2.4343,0,0,0,.12.6948,1.2813,1.2813,0,0,1,.0675.3077.1974.1974,0,0,1-.0473.153.2427.2427,0,0,1-.1834.0623,1.7444,1.7444,0,0,1-.8178-.1928c-.2541-.1329-.3829-.2852-.3829-.4526a1.9743,1.9743,0,0,1,.6411-1.2834A2.9773,2.9773,0,0,1,57.86,8.5141a3.14,3.14,0,0,1,2.0092.5771A1.9877,1.9877,0,0,1,60.59,10.725v3.6764a2.64,2.64,0,0,0,.2055,1.2207.7027.7027,0,0,0,.67.348,1.1826,1.1826,0,0,0,.2168-.0156,1.2515,1.2515,0,0,1,.234-.0408.1892.1892,0,0,1,.1531.0453.166.166,0,0,1,.0414.1335c-.0074.1322-.1613.2569-.47.3809a2.3249,2.3249,0,0,1-.8643.1771,1.7435,1.7435,0,0,1-1.4051-.9383A4.3028,4.3028,0,0,1,56.8609,16.7256Zm.52-7.6668a2.0005,2.0005,0,0,1,1.4967.5733,2.16,2.16,0,0,1,.4164,1.5154v1.1959l-.0376.0058a9.6788,9.6788,0,0,0-3.31.947,1.83,1.83,0,0,0-.9623,1.6383,1.6,1.6,0,0,0,.5056,1.2394,1.9669,1.9669,0,0,0,1.3714.4629,4.2567,4.2567,0,0,0,2.4944-1.024l.0381-.0289.0261.04a1.689,1.689,0,0,0,1.3567.9377,2.2376,2.2376,0,0,0,.8313-.1708c.3364-.1349.4113-.24.4148-.3038a.0832.0832,0,0,0-.0157-.0654.1212.1212,0,0,0-.0874-.0192,1.2427,1.2427,0,0,0-.218.0388,1.236,1.236,0,0,1-.2355.0176.7946.7946,0,0,1-.7475-.3928,2.7163,2.7163,0,0,1-.2172-1.2647V10.725a1.9028,1.9028,0,0,0-.6877-1.5645A3.055,3.055,0,0,0,57.86,8.603a2.8916,2.8916,0,0,0-2.2117.8926,1.8923,1.8923,0,0,0-.6173,1.2227c0,.1317.1127.2575.3352.3738a1.6572,1.6572,0,0,0,.7767.1828.1616.1616,0,0,0,.1189-.0346.11.11,0,0,0,.0231-.0862,1.191,1.191,0,0,0-.0634-.2863,2.5217,2.5217,0,0,1-.1244-.7219C56.097,9.4245,56.529,9.0588,57.3809,9.0588Zm.2261,7.0752a1.3483,1.3483,0,0,1-1.4442-1.4453,1.62,1.62,0,0,1,.8128-1.3864,4.9155,4.9155,0,0,1,2.27-.6656l.0483-.0043V14.54a1.4644,1.4644,0,0,1-.34,1.0674A1.8727,1.8727,0,0,1,57.607,16.134ZM59.2052,12.73a4.7775,4.7775,0,0,0-2.18.6465,1.5364,1.5364,0,0,0-.7733,1.3125,1.26,1.26,0,0,0,1.3554,1.3565,1.787,1.787,0,0,0,1.2852-.5009,1.383,1.383,0,0,0,.313-1.0041Z" fill="#fff"/><path d="M65.3721,3.2534V14.2759a3.0908,3.0908,0,0,0,.1784,1.1838q.2063.47,1.1644.63.2627.0459.2723.1927.0092.2112-.1977.2111a1.1874,1.1874,0,0,1-.2447-.0376,2.3436,2.3436,0,0,0-.4236-.0282l-.819.0094h-.4894q-.8943,0-1.1014.0282-.3013.047-.3577.0469c-.1631,0-.248-.0615-.2541-.1836q-.0093-.156.263-.2295a1.0363,1.0363,0,0,0,.5681-.3242,1.1361,1.1361,0,0,0,.1455-.6524V4.7085q0-.8638-.601-.8639l-.47.0188a.5551.5551,0,0,1-.16-.0195.1605.1605,0,0,1-.1127-.154q0-.1347.245-.2021a4.291,4.291,0,0,0,.5843-.1784l.5749-.2348a4.4873,4.4873,0,0,0,.914-.4507.3672.3672,0,0,1,.1885-.0751q.1413-.0095.1414.4135Z" fill="#fff"/><path d="M63.3537,16.5565c-.2374,0-.2933-.1228-.2984-.2258-.0077-.127.0918-.22.2956-.2746a1.0013,1.0013,0,0,0,.5438-.3074,1.1017,1.1017,0,0,0,.1372-.6263V4.7085c0-.5513-.1821-.8194-.5566-.8194l-.4678.0187H63.007a.6014.6014,0,0,1-.1737-.0213A.2052.2052,0,0,1,62.689,3.69c0-.1119.0934-.1942.2777-.2449a4.2719,4.2719,0,0,0,.58-.1769l.5744-.2345a4.4728,4.4728,0,0,0,.9043-.4453.4153.4153,0,0,1,.223-.0842.1241.1241,0,0,1,.0844.0348c.0637.06.0933.1942.0933.4234l-.0094.2919V14.2759a3.0661,3.0661,0,0,0,.1748,1.1663c.13.2968.5108.5,1.1309.6036.1976.0345.3017.1131.3093.2335a.2525.2525,0,0,1-.0581.1932.2444.2444,0,0,1-.1839.0652,1.215,1.215,0,0,1-.2547-.0387,2.3333,2.3333,0,0,0-.4136-.027l-.8185.0094h-.49c-.5911,0-.96.0093-1.0955.0278A3.2215,3.2215,0,0,1,63.3537,16.5565ZM63.4735,3.8c.43,0,.6472.3056.6472.9082V15.1224a1.1654,1.1654,0,0,1-.1539.6783,1.0681,1.0681,0,0,1-.592.341c-.1582.0427-.2356.1046-.2308.1841.0031.0611.0281.1419.21.1419.0239,0,.1042-.008.3508-.0465.1425-.0193.5049-.0286,1.1083-.0286h.4894l.8185-.0094a2.409,2.409,0,0,1,.4327.029c.2181.0505.3092.0473.3558-.0012a.1687.1687,0,0,0,.0336-.1269c-.0046-.0733-.084-.1243-.2356-.1507-.6512-.1089-1.0541-.33-1.1974-.6558a3.1489,3.1489,0,0,1-.1821-1.2017V3.2521l.0094-.2912c0-.2575-.0409-.3344-.0653-.3572a.0346.0346,0,0,0-.0288-.0107.3307.3307,0,0,0-.1669.0679,4.5448,4.5448,0,0,1-.922.455l-.5747.2346a4.3714,4.3714,0,0,1-.5909.1806c-.1392.0382-.2107.0918-.2107.1587a.1156.1156,0,0,0,.0856.1133.5332.5332,0,0,0,.1423.0159Z" fill="#fff"/><path d="M73.4821,15.2914A7.81,7.81,0,0,1,71.93,16.3967a3.0845,3.0845,0,0,1-1.3454.2845,3.0245,3.0245,0,0,1-2.3768-1.1067,4.03,4.03,0,0,1-.9611-2.7392,4.3014,4.3014,0,0,1,1.1485-3.0386A3.6931,3.6931,0,0,1,71.213,8.5586a4.4451,4.4451,0,0,1,2.2691.6667V5.5224q0-1.7811-.9578-1.7247l-.3286.0188a.3839.3839,0,0,1-.1221-.0188A.1594.1594,0,0,1,71.97,3.653q-.019-.1924.2732-.2309a5.8348,5.8348,0,0,0,2.2046-.8639.351.351,0,0,1,.1791-.0658q.1415,0,.1414.2066l-.2289.169V14.8031c.2383.7074.4543,1.0611.8862,1.0611l.554-.0188.0846.0094a.143.143,0,0,1,.1033.1468q0,.2013-.3393.2382-.3864.0377-.49.0564l-.5276.0845a3.2488,3.2488,0,0,0-.8293.1972.6275.6275,0,0,1-.2828.1033q-.2168.0088-.2167-.4664Zm0-1.1362V11.0619A1.6441,1.6441,0,0,0,73.07,9.8245a3.0638,3.0638,0,0,0-2.1985-.89,2.2386,2.2386,0,0,0-1.8292.8625,3.5017,3.5017,0,0,0-.697,2.27,4.1168,4.1168,0,0,0,.9123,2.6678,2.705,2.705,0,0,0,2.1566,1.13,2.2693,2.2693,0,0,0,1.4922-.4744A1.5241,1.5241,0,0,0,73.4821,14.1552Z" fill="#fff"/><path d="M73.6894,16.7258a.1917.1917,0,0,1-.136-.0545.6412.6412,0,0,1-.1157-.4565v-.827a7.62,7.62,0,0,1-1.4882,1.049,3.1437,3.1437,0,0,1-1.3646.2888,3.08,3.08,0,0,1-2.41-1.1219,4.0909,4.0909,0,0,1-.972-2.7684,4.3629,4.3629,0,0,1,1.16-3.0688,3.7516,3.7516,0,0,1,2.85-1.2524,4.4759,4.4759,0,0,1,2.2247.6341V5.5224a2.1158,2.1158,0,0,0-.3906-1.5066.6623.6623,0,0,0-.52-.1737l-.3287.0187h-.0008A.4322.4322,0,0,1,72.06,3.84a.2053.2053,0,0,1-.1336-.1832c-.0105-.1066.0348-.2421.3117-.2786A5.8211,5.8211,0,0,0,74.4253,2.52a.3875.3875,0,0,1,.2019-.0719c.0694,0,.1859.0325.1859.251v.0224l-.2289.169V14.7957c.2584.7654.4712,1.0241.8417,1.0241l.5527-.0188.0906.01a.1882.1882,0,0,1,.143.1909c0,.16-.1276.2554-.3792.2823-.2562.025-.42.0439-.4866.056l-.5286.0846a3.2421,3.2421,0,0,0-.8164.1931A.6261.6261,0,0,1,73.6894,16.7258Zm-.1629-1.531v1.02c0,.2541.0482.3536.0885.3923a.1038.1038,0,0,0,.082.03.5892.5892,0,0,0,.2623-.0975,3.2367,3.2367,0,0,1,.8449-.2026l.5273-.0844c.0691-.0125.23-.0311.4925-.0567.2994-.0322.2994-.154.2994-.194a.099.099,0,0,0-.0737-.1048l-.0746-.0072-.5477.019c-.4705,0-.697-.4-.93-1.0914l-.0023-.0141V2.8457l.2284-.1687c-.0059-.14-.069-.14-.0966-.14a.3115.3115,0,0,0-.1552.0588,5.911,5.911,0,0,1-2.2229.8705c-.2495.0329-.2387.1415-.2346.1824a.1164.1164,0,0,0,.076.1081.3445.3445,0,0,0,.1051.0153l.3262-.0187a.7534.7534,0,0,1,.5862.1979,2.1873,2.1873,0,0,1,.4185,1.5712v3.78L73.46,9.2636A4.4218,4.4218,0,0,0,71.213,8.603a3.6664,3.6664,0,0,0-2.7849,1.2239,4.2765,4.2765,0,0,0-1.1368,3.0084,4.0035,4.0035,0,0,0,.95,2.71,2.9945,2.9945,0,0,0,2.3432,1.0915,3.055,3.055,0,0,0,1.3263-.28,7.8118,7.8118,0,0,0,1.542-1.0989Zm-2.112.7138a2.7585,2.7585,0,0,1-2.1911-1.1465,4.1781,4.1781,0,0,1-.9222-2.6958,3.56,3.56,0,0,1,.7069-2.2975A2.29,2.29,0,0,1,70.8718,8.89a3.1212,3.1212,0,0,1,2.2294.9027,1.6939,1.6939,0,0,1,.4253,1.27v3.0932a1.5732,1.5732,0,0,1-.5915,1.269A2.3235,2.3235,0,0,1,71.4145,15.9086Zm-.5427-6.93a2.2053,2.2053,0,0,0-1.7947.846,3.4746,3.4746,0,0,0-.6871,2.2417,4.0918,4.0918,0,0,0,.9024,2.64A2.6747,2.6747,0,0,0,71.4145,15.82a2.2378,2.2378,0,0,0,1.464-.4642,1.4881,1.4881,0,0,0,.5592-1.2V11.062a1.6108,1.6108,0,0,0-.398-1.2054A3.0345,3.0345,0,0,0,70.8718,8.9786Z" fill="#fff"/><path d="M25.7206,29.1424v-7.26a3.551,3.551,0,0,0-.3662-1.829,1.2437,1.2437,0,0,0-1.1363-.5878q-.3852,0-.385-.2021,0-.2112.3757-.2111.075,0,.4789.0188.2817.0188.7793.0188.6949,0,1.0705-.0188l1.0518-.0657q.4975-.0282.939-.0282a5.6319,5.6319,0,0,1,3.2631.8274,2.7838,2.7838,0,0,1-.0516,4.5971l-.4038.282q-.1408.0846-.1315.1409.0092.0943.4883.1972a2.8668,2.8668,0,0,1,1.7,1.1258,3.3247,3.3247,0,0,1,.6667,2.0453A3.6289,3.6289,0,0,1,32.7868,31.04a4.7135,4.7135,0,0,1-3.235,1.1209l-.723-.0282-.8733-.0376-.7606-.0469q-.7515-.0476-1.1926-.047a6.3811,6.3811,0,0,0-.7512.0376,5.9455,5.9455,0,0,1-.6386.0563q-.2629,0-.2629-.2017,0-.156.2817-.1926a1.0258,1.0258,0,0,0,.9484-.8841A8.3953,8.3953,0,0,0,25.7206,29.1424ZM27.6746,25.4a.9174.9174,0,0,0-.4279.0608q-.09.0611-.0894.2953v4.3321l-.0188.4309.0564.3658a.9428.9428,0,0,0,.682.5767,6.0886,6.0886,0,0,0,1.6979.1735,3.2091,3.2091,0,0,0,2.295-.7735A2.8308,2.8308,0,0,0,32.6882,28.7a3.2782,3.2782,0,0,0-.8984-2.3625A3.0008,3.0008,0,0,0,29.5277,25.4Zm.1226-.6574H29.35q2.3616,0,2.3618-2.1222a2.8217,2.8217,0,0,0-1.0069-2.1973,3.6108,3.6108,0,0,0-2.484-.8921,1.3775,1.3775,0,0,0-.8563.183,1.03,1.03,0,0,0-.2071.7655v3.7655q0,.3286.1082.4131A1.0249,1.0249,0,0,0,27.7972,24.7425Z" fill="#fff"/><path d="M29.5518,32.2053,27.9536,32.14l-.7614-.047c-.4911-.031-.8915-.0468-1.19-.0468a6.3485,6.3485,0,0,0-.7458.0372,6.0321,6.0321,0,0,1-.6439.0566c-.254,0-.3074-.1338-.3074-.2461,0-.13.1078-.2091.32-.2367a.9775.9775,0,0,0,.9105-.8485,8.3881,8.3881,0,0,0,.14-1.6658v-7.26a3.5294,3.5294,0,0,0-.36-1.8056,1.2069,1.2069,0,0,0-1.0986-.5668c-.2849,0-.4294-.0829-.4294-.2464,0-.17.1412-.2556.42-.2556.05,0,.2077.0062.481.0188.1869.0125.4482.0188.7774.0188.46,0,.82-.0064,1.0682-.0188l1.0511-.0656c.33-.0188.6469-.0283.9419-.0283a5.7,5.7,0,0,1,3.2885.8353,2.8282,2.8282,0,0,1-.0524,4.6705l-.4029.2815c-.1107.0665-.1131.097-.1131.0972.0024.009.0333.0707.4537.161a2.9234,2.9234,0,0,1,1.7259,1.1426,3.3826,3.3826,0,0,1,.6755,2.072,3.6868,3.6868,0,0,1-1.2873,2.8807A4.7773,4.7773,0,0,1,29.5518,32.2053Zm-3.5495-.2484c.3,0,.7025.0158,1.1954.0471l.7605.0468,1.5954.0657a4.689,4.689,0,0,0,3.2038-1.11,3.6007,3.6007,0,0,0,1.2573-2.8139,3.2957,3.2957,0,0,0-.6578-2.0187,2.8355,2.8355,0,0,0-1.674-1.109c-.4485-.0964-.5163-.1707-.5225-.2365-.01-.0565.0374-.1139.1528-.1831l.4011-.28a2.7392,2.7392,0,0,0,.0518-4.5241,5.6162,5.6162,0,0,0-3.2378-.8194c-.2933,0-.6085.0094-.9365.0281l-1.0515.0656c-.25.0126-.6115.0189-1.0732.0189-.3312,0-.5945-.0064-.7824-.0189-.271-.0125-.427-.0186-.476-.0186-.3312,0-.3312.1254-.3312.1667,0,.1046.1146.1576.3406.1576a1.29,1.29,0,0,1,1.1739.6087,3.6067,3.6067,0,0,1,.373,1.8525v7.26a8.4707,8.4707,0,0,1-.1418,1.6834,1.07,1.07,0,0,1-.9858.9189c-.1617.0209-.2434.0709-.2434.1487,0,.0732.0249.1573.2186.1573a5.95,5.95,0,0,0,.633-.0559A6.4025,6.4025,0,0,1,26.0023,31.9569Zm3.5724-.2775a6.15,6.15,0,0,1-1.7111-.1757.9874.9874,0,0,1-.7109-.605l-.0581-.373.0183-.44v-4.33c0-.1736.0356-.2822.1088-.332a.9168.9168,0,0,1,.453-.0685h1.8529a3.0561,3.0561,0,0,1,2.2943.9514A3.3346,3.3346,0,0,1,32.7326,28.7,2.8861,2.8861,0,0,1,31.9,30.8939,3.2666,3.2666,0,0,1,29.5747,31.6794Zm-1.9-6.2351a.845.845,0,0,0-.4028.053c-.032.0219-.07.0844-.07.2587v4.3321l-.0189.4329.0559.3571a.9063.9063,0,0,0,.6515.5409,6.0745,6.0745,0,0,0,1.6844.1716,3.1822,3.1822,0,0,0,2.2647-.7613A2.8014,2.8014,0,0,0,32.6438,28.7a3.25,3.25,0,0,0-.886-2.3319,2.9709,2.9709,0,0,0-2.23-.9239Zm1.6751-.6574H27.7972a1.0387,1.0387,0,0,1-.5591-.0939c-.0842-.0657-.1252-.2123-.1252-.4481V20.4793a1.0559,1.0559,0,0,1,.2221-.7987,1.3983,1.3983,0,0,1,.8857-.194,3.67,3.67,0,0,1,2.5135.9031A2.8765,2.8765,0,0,1,31.756,22.62C31.756,24.0579,30.9465,24.7869,29.35,24.7869Zm-1.1291-5.2115a1.3526,1.3526,0,0,0-.8269.1717,1,1,0,0,0-.192.7322v3.7656c0,.2538.05.3457.091.3781a.9475.9475,0,0,0,.5044.0751H29.35c1.5593,0,2.3174-.68,2.3174-2.0778a2.7916,2.7916,0,0,0-.9918-2.1641A3.584,3.584,0,0,0,28.2207,19.5754Z" fill="#fff"/><path d="M37.6,18.7894V29.8119a3.0933,3.0933,0,0,0,.1784,1.1839q.2064.47,1.1644.63.2628.0459.2724.1927.009.2113-.1978.2111a1.192,1.192,0,0,1-.2446-.0375,2.3451,2.3451,0,0,0-.4236-.0282l-.8191.0094h-.4893q-.8944,0-1.1015.0281-.3012.047-.3577.047c-.1631,0-.2479-.0616-.254-.1836q-.0094-.156.2629-.23a1.0368,1.0368,0,0,0,.5681-.3241,1.1355,1.1355,0,0,0,.1456-.6525V20.2446q0-.8638-.601-.8639l-.47.0188a.56.56,0,0,1-.16-.02.1606.1606,0,0,1-.1126-.1541q0-.1346.245-.202a4.2907,4.2907,0,0,0,.5843-.1785l.5749-.2347a4.483,4.483,0,0,0,.9139-.4507.3678.3678,0,0,1,.1885-.0752q.1415-.0093.1414.4135Z" fill="#fff"/><path d="M35.5814,32.0927c-.2374,0-.2933-.1229-.2984-.2259-.0077-.1271.0918-.22.2957-.2747a1.0021,1.0021,0,0,0,.5437-.3071,1.1033,1.1033,0,0,0,.1372-.6266V20.2446c0-.5514-.1821-.8195-.5566-.8195l-.4678.0188h-.0005a.597.597,0,0,1-.1738-.0214.2048.2048,0,0,1-.1441-.1965c0-.1121.0933-.1945.2776-.245a4.2741,4.2741,0,0,0,.58-.1769l.5743-.2346a4.4723,4.4723,0,0,0,.9044-.4452.4237.4237,0,0,1,.223-.0842.1238.1238,0,0,1,.0844.0348c.0637.06.0933.1942.0933.4235l-.0094.2917V29.8119a3.0648,3.0648,0,0,0,.1748,1.1662c.13.2967.5107.5,1.1309.6038.1976.0345.3017.1131.3093.2336a.252.252,0,0,1-.0581.1931.2444.2444,0,0,1-.1839.0652,1.2251,1.2251,0,0,1-.2547-.0387,2.3216,2.3216,0,0,0-.4136-.027l-.8185.0093h-.49c-.5913,0-.96.0095-1.0954.0279A3.2363,3.2363,0,0,1,35.5814,32.0927Zm.12-12.7564c.43,0,.6472.3056.6472.9083V30.6584a1.1654,1.1654,0,0,1-.1539.6784,1.0658,1.0658,0,0,1-.5918.3408c-.1584.0428-.2358.1047-.2309.1843.003.0611.028.1419.21.1419.0241,0,.1045-.008.3508-.0465.1423-.0194.5045-.0287,1.1083-.0287H37.53l.8185-.0093a2.3531,2.3531,0,0,1,.4328.029c.22.0508.3095.0472.3558-.0012a.17.17,0,0,0,.0336-.1269c-.0047-.0733-.084-.1243-.2357-.1507-.6512-.109-1.0542-.33-1.1973-.6559a3.1479,3.1479,0,0,1-.1822-1.2017V18.788l.0094-.291c0-.2575-.0409-.3344-.0652-.3572a.0354.0354,0,0,0-.0288-.0106.33.33,0,0,0-.167.0678,4.544,4.544,0,0,1-.9219.4549l-.5746.2347a4.383,4.383,0,0,1-.591.1806c-.1393.0381-.2107.0917-.2107.1588a.1152.1152,0,0,0,.0855.1131.5283.5283,0,0,0,.1424.016Z" fill="#fff"/><path d="M46.0608,30.8087a3.2511,3.2511,0,0,1-2.648,1.4085,2.63,2.63,0,0,1-2.0518-.8124,3.2511,3.2511,0,0,1-.7371-2.2676l.0093-.62V25.4093a.9026.9026,0,0,0-.1972-.6668,1.1662,1.1662,0,0,0-.7324-.2159q-.2347-.0183-.2254-.1927.0091-.1649.58-.1923l.7109-.0282a5.0185,5.0185,0,0,0,.7016-.1315.8016.8016,0,0,1,.2059-.0375q.2525,0,.2525.4413v.1409l-.0376,4.1974v.3l.1506,1.1362a1.9827,1.9827,0,0,0,.734.9954,1.93,1.93,0,0,0,1.167.3944,2.381,2.381,0,0,0,1.4731-.4865,1.386,1.386,0,0,0,.6446-1.11V25.4656a1.0934,1.0934,0,0,0-.1831-.7324.916.916,0,0,0-.6808-.1972q-.3007,0-.3-.1743,0-.2112.3381-.22l.31-.0188.6573-.0282a3.0513,3.0513,0,0,0,.7324-.15,1.3218,1.3218,0,0,1,.2254-.047q.1972-.0093.1972.3374v6.0964a1.9216,1.9216,0,0,0,.1549.9519.72.72,0,0,0,.6339.23h.15l.1315-.0093c.1375,0,.21.0483.216.1443q.009.2024-.5447.2313l-.5916.0375a4.8785,4.8785,0,0,0-.7887.0752,1.5562,1.5562,0,0,1-.3475.0563q-.3007,0-.3-.88Z" fill="#fff"/><path d="M43.4128,32.2617a2.6836,2.6836,0,0,1-2.0847-.827,3.3079,3.3079,0,0,1-.7486-2.2975l.0093-.62V25.4093a.8668.8668,0,0,0-.1835-.6346,1.1339,1.1339,0,0,0-.7041-.2038c-.2429-.0188-.2716-.1581-.2673-.2394.0077-.14.2054-.2145.6222-.2343l.7112-.0282a5.0256,5.0256,0,0,0,.693-.13.825.825,0,0,1,.2163-.0388c.1971,0,.2969.1635.2969.4858v.1408l-.0375,4.498.15,1.13a1.9489,1.9489,0,0,0,.7162.9655,1.8953,1.8953,0,0,0,1.1407.3857,2.3482,2.3482,0,0,0,1.4464-.4776,1.35,1.35,0,0,0,.6269-1.0744V25.4656a1.0622,1.0622,0,0,0-.1712-.7022.8824.8824,0,0,0-.6482-.1831c-.2851,0-.3449-.1189-.3449-.2186,0-.1162.0661-.2563.3813-.2645l.3082-.0187L46.2,24.05a3.02,3.02,0,0,0,.7208-.1483,1.3851,1.3851,0,0,1,.2345-.0488.195.195,0,0,1,.1521.0521.4457.4457,0,0,1,.094.3294v6.0964a1.9029,1.9029,0,0,0,.1472.9271.6846.6846,0,0,0,.5971.21h.15l.1283-.0093h0c.2079,0,.2576.101.263.1858.0112.247-.4387.2707-.5865.2786l-.5912.0375a4.884,4.884,0,0,0-.78.0738,1.6106,1.6106,0,0,1-.3588.0578c-.2321,0-.3449-.3024-.3449-.9245l-.0061-.2361A3.2719,3.2719,0,0,1,43.4128,32.2617Zm-1.7362-8.2729a.7646.7646,0,0,0-.1936.0358,5.0952,5.0952,0,0,1-.71.1331l-.7127.0283c-.4922.0233-.5357.1209-.5373.15-.0034.0611.0146.1328.1842.1459a1.1932,1.1932,0,0,1,.76.2281.9462.9462,0,0,1,.2109.699v3.1081l-.0093.62a3.2217,3.2217,0,0,0,.7256,2.237,2.5988,2.5988,0,0,0,2.0189.798,3.2226,3.2226,0,0,0,2.6129-1.3914l.0763-.0986.0126.4842c0,.5477.0886.8367.2561.8367a1.5242,1.5242,0,0,0,.3367-.0551,4.85,4.85,0,0,1,.7974-.0763l.5909-.0375c.3291-.0174.5076-.0831.503-.185-.0017-.0272-.0066-.102-.1715-.102l-.1284.0093h-.1533a.7621.7621,0,0,1-.6708-.2493,1.9361,1.9361,0,0,1-.1624-.9769V24.2347a.3847.3847,0,0,0-.0663-.2651.1069.1069,0,0,0-.0844-.0278,1.2871,1.2871,0,0,0-.2153.0453,3.1127,3.1127,0,0,1-.7419.152l-.9672.0468c-.2963.0077-.2963.1342-.2963.1758,0,.0321,0,.13.2561.13a.9458.9458,0,0,1,.7133.2115,1.12,1.12,0,0,1,.1949.7626v4.4885a1.4332,1.4332,0,0,1-.6622,1.1453,2.4351,2.4351,0,0,1-1.5.4955A1.9826,1.9826,0,0,1,42.75,31.192,2.035,2.035,0,0,1,42,30.1746L41.8475,29.03l0-.3063.0375-4.3383C41.8847,23.9888,41.7281,23.9888,41.6766,23.9888Z" fill="#fff"/><path d="M50.3529,27.3061l-.0094.2066a4.1413,4.1413,0,0,0,.8888,2.7,2.718,2.718,0,0,0,2.187,1.0942,3.7747,3.7747,0,0,0,2.2292-.92.3165.3165,0,0,1,.141-.0657q.1317-.0095.1318.1495,0,.28-.6573.794a4.1313,4.1313,0,0,1-2.5823.9533,3.3053,3.3053,0,0,1-2.5683-1.163,4.4284,4.4284,0,0,1,.0329-5.7357,3.2415,3.2415,0,0,1,2.5072-1.2239A2.9391,2.9391,0,0,1,55.1607,25.4a4.859,4.859,0,0,1,.46.8639,2.3639,2.3639,0,0,1,.2348.7606q0,.31-.6114.31l-.6961-.0094-.64-.0188Zm.0563-.5165h3.1833q.7416,0,.7419-.3a1.896,1.896,0,0,0-.6339-1.3616,1.9266,1.9266,0,0,0-1.3756-.6291,1.6008,1.6008,0,0,0-1.2818.6149A3.1189,3.1189,0,0,0,50.4092,26.79Z" fill="#fff"/><path d="M52.6817,32.2617a3.3613,3.3613,0,0,1-2.6014-1.178,4.4727,4.4727,0,0,1,.0326-5.7945A3.2977,3.2977,0,0,1,52.6535,24.05a2.9934,2.9934,0,0,1,2.5433,1.3237,4.923,4.923,0,0,1,.4648.8722,2.3716,2.3716,0,0,1,.2385.7781c0,.2352-.2207.3544-.6559.3544l-.6967-.0094-.64-.0188H50.3954l-.0075.1642a4.1152,4.1152,0,0,0,.8789,2.6695,2.6861,2.6861,0,0,0,2.1525,1.0777,3.75,3.75,0,0,0,2.2022-.9111.3612.3612,0,0,1,.1617-.0744.1644.1644,0,0,1,.1292.0377.2046.2046,0,0,1,.0533.1558c0,.203-.2205.4741-.6743.829A4.1926,4.1926,0,0,1,52.6817,32.2617Zm-.0282-8.1226A3.2121,3.2121,0,0,0,50.18,25.3478a4.3838,4.3838,0,0,0-.0332,5.6769,3.276,3.276,0,0,0,2.5351,1.1482,4.1056,4.1056,0,0,0,2.555-.944c.5291-.4138.64-.6411.64-.759a.1268.1268,0,0,0-.0251-.0909.0774.0774,0,0,0-.0592-.0144.28.28,0,0,0-.1175.0571,3.8338,3.8338,0,0,1-2.2558.9291A2.772,2.772,0,0,1,51.1977,30.24a4.2034,4.2034,0,0,1-.8986-2.7275l.0114-.251h3.598l.6409.0187.6954.0095c.3757,0,.5664-.0894.5664-.2656a2.3489,2.3489,0,0,0-.2312-.743,4.8522,4.8522,0,0,0-.4555-.8558A2.909,2.909,0,0,0,52.6535,24.1391Zm.939,2.6949H50.3593l.0057-.0495a3.1781,3.1781,0,0,1,.6439-1.7,1.65,1.65,0,0,1,1.3159-.6309,1.9775,1.9775,0,0,1,1.407.642,1.9467,1.9467,0,0,1,.647,1.3931C54.3788,26.7213,54.1217,26.834,53.5925,26.834Zm-3.1332-.0888h3.1332c.4628,0,.6975-.0861.6975-.2561a1.8622,1.8622,0,0,0-.6207-1.33,1.8926,1.8926,0,0,0-1.3445-.6162,1.5645,1.5645,0,0,0-1.2475.599A3.054,3.054,0,0,0,50.4593,26.7452Z" fill="#fff"/><path d="M33.6732,35.4222H31.0345a.7836.7836,0,0,0-.5211.1127.9037.9037,0,0,0-.108.555v9.2175l.0094.3669a1.298,1.298,0,0,0,1.23,1.3073c.2191.0365.3287.1072.3287.2111q0,.2019-.2635.2021a3.6847,3.6847,0,0,1-.461-.0563,7.4152,7.4152,0,0,0-.847-.0282l-.6869-.0094-.7338.0094a6.6517,6.6517,0,0,0-.6681.0282q-.5366.0562-.6306.0563-.2822,0-.2822-.2017,0-.1466.31-.1833a1.4969,1.4969,0,0,0,.9766-.4,1.7638,1.7638,0,0,0,.2535-1.0959V36.1936l-.0094-.2449a.6369.6369,0,0,0-.0986-.4326.7229.7229,0,0,0-.4554-.0939H25.8886a1.6386,1.6386,0,0,0-1.1033.305,2.173,2.173,0,0,0-.5306,1.15q-.0845.3662-.2535.3568t-.169-.2528a4.1485,4.1485,0,0,1,.1127-.7207,5.6478,5.6478,0,0,0,.1408-1.1136,1.0761,1.0761,0,0,1,.0986-.5662.4989.4989,0,0,1,.4184-.1356H34.715q.5167,0,.6248.112a1.1826,1.1826,0,0,1,.1082.6643,4.8644,4.8644,0,0,0,.0469.8044q.047.3177.0564.458.009.2807-.1972.3-.1691.0093-.2254-.2911a1.3794,1.3794,0,0,0-.3944-.8688A1.9258,1.9258,0,0,0,33.6732,35.4222Z" fill="#fff"/><path d="M31.71,47.4392a3.6456,3.6456,0,0,1-.468-.0569,7.4263,7.4263,0,0,0-.84-.0277l-.6875-.0093-.7326.0093a6.6358,6.6358,0,0,0-.6643.0281c-.3621.038-.57.0565-.635.0565-.27,0-.3266-.1338-.3266-.2461,0-.1236.1174-.2.349-.2274a1.4649,1.4649,0,0,0,.9477-.3839,1.7341,1.7341,0,0,0,.2433-1.0675V36.1935l-.0094-.243c0-.2657-.0462-.3653-.0849-.4024s-.1445-.0815-.4248-.0815H25.8886a1.6047,1.6047,0,0,0-1.0738.2938,2.1449,2.1449,0,0,0-.5167,1.1269c-.0628.2714-.163.3951-.2993.3916-.0963-.0054-.211-.0613-.211-.2972a4.1438,4.1438,0,0,1,.1136-.73,5.6335,5.6335,0,0,0,.14-1.1044,1.0965,1.0965,0,0,1,.1071-.5924.5325.5325,0,0,1,.4543-.1538H34.715c.3655,0,.5743.04.6568.1256s.12.3066.12.695a4.8476,4.8476,0,0,0,.0463.7963c.0316.214.0507.3693.057.4632.0087.2683-.1244.3365-.2376.3467-.142.0049-.2308-.1024-.273-.3272a1.3487,1.3487,0,0,0-.3772-.8412,1.9025,1.9025,0,0,0-1.0346-.193H31.0346c-.3261,0-.446.0539-.4892.099s-.0957.1739-.0957.5244v9.2174l.0094.3657a1.25,1.25,0,0,0,1.1934,1.2648c.2424.04.3654.1261.3654.2548C32.0179,47.3051,31.9646,47.4392,31.71,47.4392Zm-1.9955-.1827.688.0093a7.3582,7.3582,0,0,1,.8535.0287,3.6473,3.6473,0,0,0,.454.0558c.1941,0,.219-.0842.219-.1576,0-.0981-.1586-.1451-.2915-.1673A1.343,1.343,0,0,1,30.37,45.6761l-.0094-.3675V36.09a.9222.9222,0,0,1,.12-.5858.8067.8067,0,0,1,.5535-.1264h2.6386a1.9423,1.9423,0,0,1,1.0876.21,1.4039,1.4039,0,0,1,.4116.8964c.0326.1737.0912.2643.1792.2547.069-.0063.1621-.0395.1553-.2536-.0061-.09-.0249-.2429-.0559-.4529a4.85,4.85,0,0,1-.0475-.811c0-.441-.0521-.5878-.0958-.6335s-.1811-.0983-.5927-.0983H24.6027c-.1972,0-.3258.04-.3825.1173a.9977.9977,0,0,0-.09.54,5.7077,5.7077,0,0,1-.1418,1.1227,4.1414,4.1414,0,0,0-.1117.7116c0,.2013.0923.2066.127.2084.1053.002.1731-.1719.2079-.3224a2.2223,2.2223,0,0,1,.5443-1.1737,1.6859,1.6859,0,0,1,1.1328-.3162H28.377a.7474.7474,0,0,1,.4862.106.6641.6641,0,0,1,.1123.4649l.0094.2431v9.3225a1.8089,1.8089,0,0,1-.2638,1.1243,1.5424,1.5424,0,0,1-1.0051.4153c-.1239.0145-.2711.05-.2711.1392,0,.0675.0247.1572.2378.1572.0611,0,.2718-.0188.6259-.056a6.721,6.721,0,0,1,.6728-.0285Z" fill="#fff"/><path d="M36.66,41.0939Q37.75,39.385,38.67,39.3849a1.4505,1.4505,0,0,1,.7653.3474q.474.3475.493.5634.0092.1394-.3.5158t-.44.3857a1.5094,1.5094,0,0,1-.4121-.2254,1.3527,1.3527,0,0,0-.7678-.2817,1.25,1.25,0,0,0-.9552.4139,1.46,1.46,0,0,0-.3838,1.0322V45.482a2.194,2.194,0,0,0,.2113,1.12.9065.9065,0,0,0,.7372.3794l.4883.0376q.3.0188.3.1878,0,.1878-.2634.1878-.066,0-.4424-.0469c-.1193-.0129-.2951-.0188-.5272-.0188l-.6777-.0094H36.082a7.9179,7.9179,0,0,0-1.0448.0469c-.1631.0247-.2761.0407-.3389.047-.1694.0059-.2541-.055-.2541-.1836,0-.1037.0971-.1743.2911-.2108a.7009.7009,0,0,0,.5212-.3474,3.111,3.111,0,0,0,.1174-1.08V41.5634q0-1.08-1.0329-1.08l-.3193.0094q-.2163,0-.216-.193a.1882.1882,0,0,1,.1409-.1732,1.5106,1.5106,0,0,1,.2065-.0282,5.0862,5.0862,0,0,0,2.0847-.8263.5927.5927,0,0,1,.216-.0751q.216-.0094.2159.3192l-.0093.1785Z" fill="#fff"/><path d="M34.6771,47.4582a.2986.2986,0,0,1-.2166-.0676A.2144.2144,0,0,1,34.4,47.23c0-.128.11-.2135.3273-.2545a.66.66,0,0,0,.489-.3223,3.1015,3.1015,0,0,0,.1134-1.0612V41.5634c0-.6967-.3234-1.0354-.9886-1.0354l-.3179.0094c-.1693,0-.2617-.0843-.2617-.2375a.2288.2288,0,0,1,.1684-.2144,1.4877,1.4877,0,0,1,.22-.0312,5.0749,5.0749,0,0,0,2.0647-.82.6392.6392,0,0,1,.2348-.0816.2192.2192,0,0,1,.1725.0579.4088.4088,0,0,1,.0923.3056l-.0093.1807v1.2465c.7009-1.0639,1.3616-1.6031,1.9651-1.6031a1.473,1.473,0,0,1,.7915.3561c.33.2416.497.4364.511.5952.0046.0687-.0226.199-.3095.5479-.2881.35-.4069.3972-.4712.4018h0c-.0423,0-.1249-.0279-.4392-.2325a1.3191,1.3191,0,0,0-.7435-.2745,1.2127,1.2127,0,0,0-.9227.4,1.4232,1.4232,0,0,0-.372,1.0021V45.482a2.1649,2.1649,0,0,0,.2045,1.0963.8684.8684,0,0,0,.7035.359l.4877.0376c.2264.0141.3415.0923.3415.2321,0,.1059-.0533.2322-.3078.2322-.0466,0-.1931-.0155-.4479-.0472-.1149-.0125-.2857-.0185-.5217-.0185l-.6783-.0094H36.082a7.9314,7.9314,0,0,0-1.038.0465c-.1729.0262-.2813.0412-.3413.0472Zm-.3375-7.019c.7162,0,1.0787.3782,1.0787,1.1242v4.0285a3.1076,3.1076,0,0,1-.1215,1.0986.7447.7447,0,0,1-.5514.3719c-.171.0322-.2567.0885-.2567.1675a.1273.1273,0,0,0,.0336.0967.2418.2418,0,0,0,.1744.0426c.0556-.0057.1626-.02.3339-.0465a7.8687,7.8687,0,0,1,1.0514-.0475h.4141l.6784.01c.2386,0,.4126.0062.5313.019.3092.0385.4086.0466.4377.0466.1941,0,.219-.0766.219-.1433,0-.0315,0-.1273-.2589-.1436l-.4888-.0375a.9524.9524,0,0,1-.7713-.4,2.2112,2.2112,0,0,1-.2182-1.144V42.1363a1.5089,1.5089,0,0,1,.3957-1.0625,1.2986,1.2986,0,0,1,.9878-.4281,1.4017,1.4017,0,0,1,.7931.29,1.43,1.43,0,0,0,.3868.2174c.0383-.0029.1469-.0549.4056-.37s.2926-.4388.29-.4846c-.0077-.0883-.0966-.2531-.4749-.53a1.4186,1.4186,0,0,0-.739-.3389c-.5945,0-1.2581.5681-1.9721,1.6884l-.0818.1286V39.6948l.0093-.1807a.3347.3347,0,0,0-.0649-.2392.1382.1382,0,0,0-.1047-.0335.5549.5549,0,0,0-.1967.07,5.1474,5.1474,0,0,1-2.1017.8314,1.5062,1.5062,0,0,0-.2011.0273c-.0944.04-.1061.0932-.1061.13,0,.1041.0514.1487.1716.1487Z" fill="#fff"/><path d="M47.1117,46.0989a3.2509,3.2509,0,0,1-2.648,1.4086,2.63,2.63,0,0,1-2.0518-.8124,3.2511,3.2511,0,0,1-.7371-2.2676l.0094-.62V40.7a.9028.9028,0,0,0-.1972-.6667,1.1665,1.1665,0,0,0-.7325-.216q-.2347-.0182-.2253-.1926.009-.1649.58-.1924l.7109-.0281a5.0486,5.0486,0,0,0,.7016-.1315.8026.8026,0,0,1,.2059-.0376q.2526,0,.2525.4414v.1408l-.0375,4.1975v.3l.1506,1.1362a1.9821,1.9821,0,0,0,.734.9954,1.93,1.93,0,0,0,1.167.3944,2.38,2.38,0,0,0,1.473-.4866,1.3859,1.3859,0,0,0,.6446-1.11V40.7559a1.0937,1.0937,0,0,0-.1831-.7325.9163.9163,0,0,0-.6808-.1972q-.3007,0-.3-.1742,0-.2114.338-.22l.31-.0187.6573-.0282a3.0471,3.0471,0,0,0,.7324-.15,1.32,1.32,0,0,1,.2254-.0469q.1973-.0095.1972.3373v6.0964a1.9223,1.9223,0,0,0,.1549.9519.7192.7192,0,0,0,.6339.23h.15l.1315-.0094c.1376,0,.21.0484.216.1444q.0092.2023-.5447.2312l-.5915.0376a4.8845,4.8845,0,0,0-.7888.0751,1.5517,1.5517,0,0,1-.3475.0564q-.3007,0-.3-.88Z" fill="#fff"/><path d="M44.4637,47.5519a2.6836,2.6836,0,0,1-2.0847-.827,3.3075,3.3075,0,0,1-.7486-2.2974l.0094-.62V40.7a.8665.8665,0,0,0-.1836-.6345,1.1323,1.1323,0,0,0-.704-.2038c-.231-.018-.2728-.14-.2675-.24.0078-.14.2054-.2145.6223-.2342l.7112-.0283a5.0276,5.0276,0,0,0,.6931-.13.8259.8259,0,0,1,.2162-.0388c.1971,0,.2969.1634.2969.4858v.1409l-.0375,4.4979.15,1.13a1.9486,1.9486,0,0,0,.7163.9654,1.8945,1.8945,0,0,0,1.1407.3858,2.3494,2.3494,0,0,0,1.4463-.4776,1.35,1.35,0,0,0,.6269-1.0744V40.7558a1.0624,1.0624,0,0,0-.1712-.7021.882.882,0,0,0-.6482-.1831c-.2851,0-.345-.1188-.345-.2186,0-.1161.0662-.2563.3813-.2645l.3084-.0188.6581-.0282a3.023,3.023,0,0,0,.7209-.1482,1.3453,1.3453,0,0,1,.2345-.0487.198.198,0,0,1,.152.052.4461.4461,0,0,1,.0939.33v6.0963a1.902,1.902,0,0,0,.1474.9271.684.684,0,0,0,.597.21h.15l.1282-.0092h0c.219,0,.2586.1163.263.1856.0113.247-.4387.2708-.5866.2787l-.5911.0374a4.9008,4.9008,0,0,0-.78.0738,1.5783,1.5783,0,0,1-.3588.0578c-.2321,0-.3449-.3024-.3449-.9243l-.0062-.2362A3.2718,3.2718,0,0,1,44.4637,47.5519ZM42.7275,39.279a.7614.7614,0,0,0-.1935.0359,5.0855,5.0855,0,0,1-.71.133l-.7127.0284c-.4921.0232-.5356.1209-.5372.15-.0034.061.0146.1327.1844.146a1.19,1.19,0,0,1,.76.2281.9461.9461,0,0,1,.211.6989v3.1081l-.0094.62a3.2217,3.2217,0,0,0,.7256,2.237,2.5987,2.5987,0,0,0,2.0189.7979,3.2223,3.2223,0,0,0,2.6129-1.3914l.0762-.0985.0127.4842c0,.5478.0886.8367.2561.8367a1.5242,1.5242,0,0,0,.3367-.0551,4.8607,4.8607,0,0,1,.7974-.0764l.5909-.0374c.3292-.0175.5077-.0831.503-.1851-.0017-.0272-.0065-.1018-.1716-.1018l-.1282.0092h-.1534a.7616.7616,0,0,1-.6707-.2495,1.9327,1.9327,0,0,1-.1625-.9767V39.5251a.3841.3841,0,0,0-.0664-.2652.1077.1077,0,0,0-.0843-.0277,1.2746,1.2746,0,0,0-.2152.0452,3.1147,3.1147,0,0,1-.742.1519l-.9672.0469c-.2963.0079-.2963.1343-.2963.1758,0,.0321,0,.13.2561.13a.9458.9458,0,0,1,.7133.2114,1.121,1.121,0,0,1,.1949.7626v4.4886a1.4331,1.4331,0,0,1-.6623,1.1453,2.4349,2.4349,0,0,1-1.5.4955,1.981,1.981,0,0,1-1.1933-.403,2.0355,2.0355,0,0,1-.75-1.0174l-.1524-1.1442,0-.3063.0376-4.3383C42.9356,39.279,42.779,39.279,42.7275,39.279Z" fill="#fff"/><path d="M53.4878,39.3849a3.7537,3.7537,0,0,1,1.277.1941l.4132.1387q.2535.0929.2535.2869v.15a1.83,1.83,0,0,0,.0188.2629l.0376.3662a2.5427,2.5427,0,0,1,.0282.3569q0,.3661-.2113.3756-.1154.0093-.2113-.2442a1.9259,1.9259,0,0,0-1.9344-1.4273,1.3427,1.3427,0,0,0-.9249.32,1.093,1.093,0,0,0,.0281,1.6489,6.5041,6.5041,0,0,0,1.5729.7822,4.3147,4.3147,0,0,1,1.6292.97,1.9874,1.9874,0,0,1,.4554,1.3731,2.4274,2.4274,0,0,1-.784,1.8134,2.607,2.607,0,0,1-1.8734.7547,3.9043,3.9043,0,0,1-1.69-.4414.9607.9607,0,0,0-.2723-.1032l-.2441-.0282a.232.232,0,0,1-.2348-.2341l-.0094-.402-.0281-1.1975.0193-.28c.0253-.1683.0958-.2556.2107-.2619s.1916.0877.23.2817a3.0744,3.0744,0,0,0,.7653,1.6152,1.8406,1.8406,0,0,0,1.3663.5822,1.5843,1.5843,0,0,0,1.1221-.4052,1.35,1.35,0,0,0,.4367-1.0357,1.5258,1.5258,0,0,0-1.0611-1.4315l-.8264-.3673A4.6639,4.6639,0,0,1,51.45,42.7911a1.8258,1.8258,0,0,1-.47-1.27,1.9224,1.9224,0,0,1,.7231-1.5181A2.6483,2.6483,0,0,1,53.4878,39.3849Z" fill="#fff"/><path d="M53.2624,47.5519a3.9658,3.9658,0,0,1-1.71-.4458.8771.8771,0,0,0-.2529-.0988l-.2493-.0285a.2752.2752,0,0,1-.2738-.2743l-.0377-1.6023.0194-.2844c.0363-.242.1574-.2981.2527-.3032.14-.0082.2326.0991.276.3175a3.0469,3.0469,0,0,0,.7535,1.5927,1.8052,1.8052,0,0,0,1.3344.5688A1.5481,1.5481,0,0,0,54.467,46.6a1.3127,1.3127,0,0,0,.4224-1.0031,1.4908,1.4908,0,0,0-1.0346-1.3909l-.8264-.3673a4.7243,4.7243,0,0,1-1.6113-1.0181,1.8768,1.8768,0,0,1-.481-1.3,1.9739,1.9739,0,0,1,.7387-1.5519,2.7034,2.7034,0,0,1,1.813-.6289,3.8115,3.8115,0,0,1,1.2921.1967l.4123.1384c.1887.0692.2838.18.2838.329v.15a1.7989,1.7989,0,0,0,.0182.2565l.0378.3681a2.5694,2.5694,0,0,1,.0285.3613c0,.2714-.0853.4126-.2538.42-.0985.0081-.1824-.081-.2547-.2728a1.8923,1.8923,0,0,0-1.893-1.3986,1.3052,1.3052,0,0,0-.8953.3091,1.0484,1.0484,0,0,0,.0269,1.5813,6.499,6.499,0,0,0,1.5607.7752,4.374,4.374,0,0,1,1.6462.9818,2.0387,2.0387,0,0,1,.4667,1.4027,2.48,2.48,0,0,1-.7977,1.8453A2.6609,2.6609,0,0,1,53.2624,47.5519Zm-1.9566-.6332a.8647.8647,0,0,1,.2855.1073,3.8807,3.8807,0,0,0,1.6711.4371,2.5746,2.5746,0,0,0,1.8425-.7422,2.3948,2.3948,0,0,0,.77-1.7814,1.9538,1.9538,0,0,0-.4442-1.3436,4.2934,4.2934,0,0,0-1.6122-.9581,6.5693,6.5693,0,0,1-1.5849-.7894,1.1373,1.1373,0,0,1-.0293-1.7164,1.3906,1.3906,0,0,1,.9542-.3314,1.9739,1.9739,0,0,1,1.9763,1.4566c.054.1429.1144.2185.1659.2149.0434-.0019.17-.0074.17-.3313a2.513,2.513,0,0,0-.0278-.35l-.0378-.368a1.8725,1.8725,0,0,1-.0189-.2674v-.15c0-.11-.0735-.19-.2245-.2451l-.4121-.1385a3.728,3.728,0,0,0-1.2628-.1917,2.6184,2.6184,0,0,0-1.7554.6076,1.8886,1.8886,0,0,0-.7074,1.4844,1.79,1.79,0,0,0,.4581,1.24,4.6451,4.6451,0,0,0,1.581.9963l.8267.3674a1.5724,1.5724,0,0,1,1.0874,1.4721,1.3981,1.3981,0,0,1-.4508,1.0682,1.6334,1.6334,0,0,1-1.1524.4171,1.8919,1.8919,0,0,1-1.3981-.5955A3.1329,3.1329,0,0,1,51.2,44.849c-.05-.2527-.1509-.2479-.184-.2456s-.1366.0073-.1693.224l-.0189.2768L50.8654,46.7a.1877.1877,0,0,0,.1941.1907l.2454.0284Z" fill="#fff"/><path d="M59.4318,40.5211v4.7233a1.8331,1.8331,0,0,0,.2629,1.1926,1.4463,1.4463,0,0,0,1.0987.4038,2.0657,2.0657,0,0,0,.9672-.2066l.4883-.2348.0563-.0187q.1128,0,.1127.1022,0,.3078-.7418.666a3.1962,3.1962,0,0,1-1.38.3586q-2.16,0-2.16-2.2506V40.5211H57.3q-.2443,0-.2441-.1422,0-.132.2441-.3391a8.2274,8.2274,0,0,0,1.6809-1.8649q.2535-.4147.3568-.4145.1316,0,.1315.2441l-.0376,1.6245h2a1.1464,1.1464,0,0,0,.6386-.15.5688.5688,0,0,1,.2066-.1127q.1032-.0188.0939.1043a.8976.8976,0,0,1-.0845.2365l-.216.54a.4016.4016,0,0,1-.4132.2747Z" fill="#fff"/><path d="M60.2958,47.5519a1.9949,1.9949,0,0,1-2.2042-2.295V40.5655H57.3c-.2386,0-.2887-.1015-.2887-.1867,0-.1027.085-.2248.26-.373a8.2252,8.2252,0,0,0,1.6718-1.8545c.2346-.3836.3311-.4354.3945-.4354.08,0,.1759.05.1759.2887l-.0365,1.58H61.432a1.1109,1.1109,0,0,0,.6139-.1427.5805.5805,0,0,1,.2249-.12.12.12,0,0,1,.107.0236.1478.1478,0,0,1,.0375.128.7863.7863,0,0,1-.0882.2513l-.2153.5379a.4439.4439,0,0,1-.4544.3026H59.4762v4.6789a1.81,1.81,0,0,0,.2505,1.1618,1.41,1.41,0,0,0,1.0667.39,2.0308,2.0308,0,0,0,.9466-.2017l.49-.2353.0755-.0232a.1385.1385,0,0,1,.1572.1467c0,.2256-.2509.4566-.767.706A3.2534,3.2534,0,0,1,60.2958,47.5519Zm-.9579-9.7472c-.0132,0-.09.019-.3189.3933a8.3073,8.3073,0,0,1-1.69,1.8756c-.1889.16-.2286.2543-.2286.3052,0,.0242,0,.0979.2.0979h.88v4.78c0,1.4845.6919,2.2062,2.1154,2.2062a3.1667,3.1667,0,0,0,1.361-.3542c.4756-.23.7168-.4405.7168-.626,0-.0359-.01-.0561-.0614-.0578l-.0492.0164-.4831.2326a2.116,2.116,0,0,1-.9865.2111,1.4952,1.4952,0,0,1-1.1309-.4175,1.848,1.848,0,0,1-.2751-1.2233V40.4767h2.27a.358.358,0,0,0,.3715-.246l.2163-.54a.8312.8312,0,0,0,.0814-.22c.0026-.0364-.0029-.0539-.0082-.0587-.0038-.0033-.0142-.0052-.0334-.002a.5045.5045,0,0,0-.1882.1048,1.194,1.194,0,0,1-.6648.1588H59.3863l.0386-1.67C59.4249,37.8719,59.3956,37.8047,59.3379,37.8047Z" fill="#fff"/><path d="M64.2826,40.3238a1.1431,1.1431,0,1,1,1.1431-1.143A1.1443,1.1443,0,0,1,64.2826,40.3238Zm0-2.0481a.9051.9051,0,1,0,.905.9051A.906.906,0,0,0,64.2826,38.2757Z" fill="#fff"/><path d="M64.429,39.1639v.0228a.2739.2739,0,0,1,.2264.18.62.62,0,0,0,.105.1968.2362.2362,0,0,0,.1246.0673v.0524h-.2033c-.128,0-.1658-.0459-.2247-.1805l-.0706-.1656a.165.165,0,0,0-.1771-.1181h-.0346v.374l.1527.0362v.054h-.5527V39.63l.1541-.0362v-.8644l-.1541-.036V38.639h.58c.2378,0,.3806.0968.3806.2591C64.7358,39.0277,64.6373,39.1277,64.429,39.1639Zm-.1672-.4446a.7683.7683,0,0,0-.0871.0016v.42l.0919-.0016a.199.199,0,0,0,.22-.2149C64.4864,38.7833,64.3962,38.7243,64.2618,38.7193Z" fill="#fff"/></svg>