<svg xmlns="http://www.w3.org/2000/svg" width="100" height="50" viewBox="0 0 100 50"><title>Savant</title><polygon points="67.365 4.337 41.169 4.337 40.821 5.042 59.037 5.042 59.037 6.522 66.304 6.522 67.365 4.337 67.365 4.337" fill="#fff"/><polygon points="66.09 7.131 39.578 7.131 39.222 7.837 55.221 7.837 55.221 9.316 65.022 9.316 66.09 7.131 66.09 7.131" fill="#fff"/><polygon points="64.713 9.95 37.899 9.95 37.543 10.654 51.334 10.654 51.334 12.135 63.66 12.135 64.713 9.95 64.713 9.95" fill="#fff"/><polygon points="63.423 12.697 36.285 12.697 35.928 13.393 47.178 13.393 47.178 14.882 62.362 14.882 63.423 12.697 63.423 12.697" fill="#fff"/><polygon points="62.077 15.413 34.622 15.413 34.266 16.117 42.998 16.117 42.998 17.605 61.016 17.605 62.077 15.413 62.077 15.413" fill="#fff"/><polygon points="60.763 18.223 32.991 18.223 32.635 18.928 39.15 18.928 39.15 20.407 59.702 20.407 60.763 18.223 60.763 18.223" fill="#fff"/><path d="M28.8957,32.4191h4.1972L34.16,48.518H31.0161l-.2614-3.4928h-4.88L24.2556,48.518h-3.304ZM27.3926,42.5345h3.1733L30.37,35.5416Z" fill="#fff"/><polygon points="36.106 32.434 39.542 32.434 39.607 44.154 44.915 32.434 48.146 32.434 40.507 48.489 36.622 48.489 36.106 32.434 36.106 32.434" fill="#fff"/><path d="M51.6027,32.4191H55.96l.9949,16.0989H53.7521l-.1961-3.4347H48.6617L47.0134,48.518h-3.304ZM49.8381,42.5345H53.36l-.1888-6.8622Z" fill="#fff"/><polygon points="57.993 48.489 61.101 48.489 63.555 36.834 65.567 48.489 69.902 48.489 73.344 32.434 70.28 32.419 67.767 43.377 65.843 32.412 61.377 32.412 57.993 48.489 57.993 48.489" fill="#fff"/><polygon points="74.375 32.434 85.187 32.434 84.541 35.084 80.845 35.084 77.955 48.489 74.782 48.489 77.483 35.15 73.794 35.15 74.375 32.434 74.375 32.434" fill="#fff"/><path d="M11.1847,43.6455h3.3839s-.6027,2.527.6608,2.7158a2.1388,2.1388,0,0,0,2.6433-1.3434,1.8734,1.8734,0,0,0-.7552-2.3091c-.5084-.3994-1.5758-1.1474-1.5758-1.1474S13.98,40.3705,13.828,40.2035a4.1319,4.1319,0,0,1-1.0022-1.8517,4.7632,4.7632,0,0,1,.3414-2.9046,6.4748,6.4748,0,0,1,1.5612-2.0332,5.2334,5.2334,0,0,1,2.0042-1.0457,7.6886,7.6886,0,0,1,2.4689-.167,7.9874,7.9874,0,0,1,2.07.2759c.501.16,1.6992.9367,1.7863,1.9316a10.7963,10.7963,0,0,1-.1743,2.6359H19.5573a3.6294,3.6294,0,0,0,0-1.7791c-.29-.7261-1.8734-.8133-2.5851,0a1.9461,1.9461,0,0,0-.0871,2.6069,6.5347,6.5347,0,0,0,2.0623,1.4959,7.7272,7.7272,0,0,1,2.0768,1.721,3.6306,3.6306,0,0,1,.6317,1.8154,8.4787,8.4787,0,0,1-.4284,2.4254,4.8146,4.8146,0,0,1-1.8808,2.4617,5.0834,5.0834,0,0,1-2.9554,1.06A22.8542,22.8542,0,0,1,13.4,48.8157a2.8247,2.8247,0,0,1-2.3164-1.9678,7.9131,7.9131,0,0,1,.0944-3.1951h0Z" fill="#fff"/><path d="M86.2985,33.7625a1.3688,1.3688,0,1,1,1.3688,1.3688h0a1.3688,1.3688,0,0,1-1.3688-1.3688Zm1.3652,1.1982A1.1546,1.1546,0,0,0,88.8121,33.8h0l-.0011-.0447A1.1453,1.1453,0,1,0,87.6263,34.96l.0447.0011Zm-.4357-1.5685c0-.24,0-.2832-.138-.2978h-.0581a.0436.0436,0,0,1-.0122-.06l.0122-.0122H87.62a.4284.4284,0,0,1,.53.3921.4211.4211,0,0,1-.2832.37.0652.0652,0,0,0,0,.0581,2.7691,2.7691,0,0,0,.4284.5954.1888.1888,0,0,0,.138.0581m0,.0436h-.1162a.4867.4867,0,0,1-.45-.2832c-.0508-.08-.138-.24-.2106-.3486a.1381.1381,0,0,0-.1016-.0435c-.0944,0-.0944,0-.0944.0508v.2178c0,.2542,0,.2978.1307.3123h.08a.0434.0434,0,0,1,.0122.06l-.0122.0122h-.6244a.0509.0509,0,0,1-.0008-.0719h0l.0008-.0007h.058c.138,0,.138-.0654.138-.3123v-.7261h0Zm-.98-.8641c0,.0726,0,.08.1525.08a.29.29,0,0,0,.3122-.334.3122.3122,0,0,0-.3118-.3126h0l-.0148,0c-.138,0-.138,0-.138.0872v.4792Z" fill="#fff"/></svg>